<svg xmlns="http://www.w3.org/2000/svg" viewBox="0, 0, 400,200.0846381718155">
    <path
        fill="#cc0033"
        d="M292.340 46.989 C 292.014 47.027,291.024 47.141,290.140 47.242 C 268.590 49.723,254.708 67.726,257.561 89.490 C 260.487 111.814,281.335 125.503,304.949 120.606 C 311.688 119.209,319.436 114.869,323.037 110.475 L 323.658 109.717 317.648 104.118 C 314.343 101.038,311.581 98.523,311.511 98.528 C 311.441 98.534,311.005 99.004,310.541 99.574 C 305.582 105.672,295.277 107.457,287.323 103.596 C 273.609 96.939,272.208 75.133,284.915 66.134 C 292.843 60.520,305.121 61.667,310.687 68.543 L 311.156 69.122 317.066 63.214 L 322.976 57.305 321.919 56.231 C 317.551 51.786,310.537 48.593,302.328 47.311 C 300.638 47.047,293.769 46.826,292.340 46.989 M136.189 49.020 C 138.704 49.917,139.694 52.807,138.232 54.988 C 137.314 56.358,136.633 56.608,133.559 56.708 L 130.935 56.792 131.744 57.194 C 133.937 58.283,134.636 60.887,133.253 62.819 C 132.749 63.522,131.652 64.309,131.113 64.353 C 130.922 64.369,131.680 64.430,132.797 64.489 C 135.140 64.613,135.850 64.884,136.828 66.027 C 138.448 67.919,137.858 70.813,135.613 71.979 L 134.705 72.450 130.620 72.468 C 128.373 72.477,126.763 72.541,127.042 72.609 C 130.521 73.455,131.254 77.773,128.236 79.640 L 127.408 80.152 123.713 80.207 L 120.017 80.261 119.913 80.677 C 119.835 80.987,119.915 81.192,120.228 81.482 C 122.173 83.284,121.712 86.387,119.322 87.578 L 118.427 88.024 119.110 88.024 C 123.465 88.024,125.097 93.448,121.371 95.540 C 120.468 96.047,120.366 96.064,117.947 96.124 L 115.454 96.186 116.312 96.613 C 118.646 97.777,119.086 100.758,117.201 102.643 C 116.249 103.594,115.929 103.675,112.865 103.737 C 109.878 103.798,109.420 103.947,110.495 104.509 C 113.137 105.889,113.056 109.846,110.359 111.180 L 109.665 111.524 114.121 111.581 L 118.578 111.638 119.487 112.141 C 122.516 113.819,122.337 117.893,119.171 119.326 L 118.409 119.671 120.374 119.675 L 122.339 119.678 124.951 112.780 L 127.563 105.882 141.353 105.841 L 155.142 105.800 157.909 112.739 L 160.676 119.678 170.327 119.678 L 179.977 119.678 179.879 119.298 C 179.825 119.088,173.158 103.149,165.065 83.876 L 150.349 48.836 142.927 48.806 C 136.289 48.780,135.578 48.802,136.189 49.020 M184.680 84.216 L 184.680 119.703 200.212 119.630 C 216.529 119.553,216.733 119.545,221.063 118.741 C 243.021 114.665,254.579 98.193,250.930 76.174 C 248.600 62.120,238.444 52.769,222.344 49.856 C 216.905 48.872,216.971 48.875,200.212 48.800 L 184.680 48.729 184.680 84.216 M215.489 63.893 C 227.826 65.843,233.886 73.043,233.380 85.151 C 232.952 95.417,227.420 101.852,217.246 103.922 C 214.426 104.495,212.736 104.610,207.067 104.611 L 201.608 104.613 201.608 84.026 L 201.608 63.439 207.660 63.525 C 212.108 63.589,214.182 63.686,215.489 63.893 M145.983 80.152 L 150.269 91.832 141.549 91.876 C 136.753 91.900,132.792 91.884,132.747 91.839 C 132.678 91.770,141.221 68.763,141.483 68.311 C 141.543 68.210,141.599 68.210,141.638 68.311 C 141.671 68.400,143.627 73.728,145.983 80.152 M104.782 148.032 L 104.782 158.612 107.319 158.612 L 109.856 158.612 109.901 151.920 L 109.945 145.228 114.063 151.920 L 118.182 158.612 121.131 158.612 L 124.080 158.612 124.080 148.032 L 124.080 137.452 121.516 137.452 L 118.953 137.452 119.071 144.266 L 119.189 151.079 117.824 148.879 C 117.073 147.668,115.185 144.602,113.628 142.065 L 110.797 137.452 107.789 137.452 L 104.782 137.452 104.782 148.032 M132.713 148.032 L 132.713 158.612 140.161 158.612 L 147.609 158.612 147.609 156.411 L 147.609 154.211 142.700 154.211 L 137.791 154.211 137.791 152.095 L 137.791 149.979 142.107 149.979 L 146.424 149.979 146.424 147.863 L 146.424 145.747 142.107 145.747 L 137.791 145.747 137.791 143.800 L 137.791 141.854 142.361 141.854 L 146.932 141.854 146.932 139.653 L 146.932 137.452 139.822 137.452 L 132.713 137.452 132.713 148.032 M155.226 148.047 L 155.226 158.641 160.516 158.570 C 166.322 158.491,166.986 158.393,169.361 157.255 C 176.606 153.786,176.869 142.375,169.784 138.921 C 167.323 137.722,165.519 137.460,159.670 137.456 L 155.226 137.452 155.226 148.047 M182.480 148.032 L 182.480 158.612 189.928 158.612 L 197.376 158.612 197.376 156.411 L 197.376 154.211 192.467 154.211 L 187.558 154.211 187.558 152.095 L 187.558 149.979 191.959 149.979 L 196.361 149.979 196.361 147.863 L 196.361 145.747 191.959 145.747 L 187.558 145.747 187.558 143.800 L 187.558 141.854 192.213 141.854 L 196.868 141.854 196.868 139.653 L 196.868 137.452 189.674 137.452 L 182.480 137.452 182.480 148.032 M204.994 148.032 L 204.994 158.612 207.533 158.612 L 210.072 158.612 210.072 154.465 L 210.072 150.317 210.882 150.317 L 211.692 150.317 213.948 154.465 L 216.204 158.612 219.232 158.612 C 220.897 158.612,222.260 158.553,222.260 158.480 C 222.260 158.408,221.079 156.418,219.636 154.058 C 216.558 149.025,216.820 149.754,217.901 149.215 C 222.315 147.014,222.351 140.625,217.961 138.464 C 216.288 137.641,214.830 137.465,209.606 137.458 L 204.994 137.452 204.994 148.032 M229.031 148.032 L 229.031 158.612 235.717 158.612 L 242.404 158.612 242.404 156.327 L 242.404 154.041 238.341 154.041 L 234.278 154.041 234.278 145.747 L 234.278 137.452 231.655 137.452 L 229.031 137.452 229.031 148.032 M251.064 147.692 C 248.705 153.322,246.734 158.083,246.685 158.274 C 246.596 158.614,246.645 158.619,249.428 158.574 L 252.262 158.527 252.555 157.766 C 252.716 157.347,253.057 156.450,253.313 155.774 L 253.777 154.543 257.771 154.589 L 261.765 154.634 262.548 156.581 L 263.330 158.527 266.259 158.574 C 269.003 158.617,269.182 158.601,269.079 158.320 C 269.019 158.155,267.051 153.392,264.707 147.736 L 260.443 137.452 257.898 137.455 L 255.353 137.457 251.064 147.692 M275.243 148.032 L 275.243 158.612 277.790 158.612 L 280.337 158.612 280.227 151.799 L 280.116 144.985 284.320 151.799 L 288.524 158.612 291.448 158.612 L 294.372 158.612 294.372 148.032 L 294.372 137.452 291.867 137.452 L 289.363 137.452 289.430 144.181 C 289.472 148.407,289.437 150.847,289.337 150.741 C 289.249 150.647,287.367 147.620,285.154 144.012 L 281.131 137.452 278.187 137.452 L 275.243 137.452 275.243 148.032 M303.005 148.016 L 303.005 158.612 307.787 158.610 C 315.261 158.606,318.002 157.754,320.606 154.623 C 323.925 150.632,323.482 143.546,319.707 140.244 C 317.254 138.098,315.172 137.597,308.295 137.497 L 303.005 137.420 303.005 148.016 M213.974 141.871 C 215.232 142.141,215.852 142.751,215.943 143.810 C 216.099 145.615,215.079 146.294,212.061 146.394 L 210.072 146.460 210.072 144.072 L 210.072 141.684 211.587 141.684 C 212.420 141.684,213.495 141.768,213.974 141.871 M165.967 142.528 C 168.327 143.444,169.364 145.129,169.355 148.032 C 169.343 152.136,167.051 154.041,162.131 154.041 L 160.305 154.041 160.305 148.013 L 160.305 141.984 162.632 142.061 C 164.537 142.123,165.143 142.208,165.967 142.528 M313.918 142.529 C 316.210 143.419,317.315 145.244,317.300 148.117 C 317.280 152.123,314.891 154.041,309.922 154.041 L 308.252 154.041 308.252 148.013 L 308.252 141.984 310.580 142.061 C 312.487 142.123,313.090 142.208,313.918 142.529 M259.102 147.017 L 260.302 150.317 257.787 150.317 L 255.272 150.317 255.702 149.175 C 255.938 148.546,256.489 147.061,256.924 145.874 C 257.360 144.687,257.759 143.716,257.810 143.716 C 257.861 143.716,258.442 145.201,259.102 147.017 "
    ></path>
    <path
        fill="#cc0033"
        d="M72.666 104.046 C 69.982 104.997,69.281 108.951,71.470 110.796 C 72.587 111.738,72.411 111.722,81.889 111.722 L 90.662 111.722 91.579 111.172 C 94.514 109.410,93.887 104.856,90.583 103.938 C 89.517 103.642,73.535 103.739,72.666 104.046 M98.872 111.727 C 94.892 112.560,94.686 118.505,98.604 119.491 C 100.150 119.881,117.812 119.739,118.909 119.328 C 122.365 118.035,122.371 112.926,118.917 111.944 C 118.050 111.697,99.950 111.501,98.872 111.727 "
    ></path>
    <path
        fill="#cc0033"
        d="M86.814 64.730 C 83.404 65.948,83.279 70.821,86.622 72.222 C 87.551 72.611,95.858 72.538,96.741 72.132 C 99.815 70.722,99.820 66.325,96.748 64.895 C 95.720 64.416,88.049 64.289,86.814 64.730 M103.681 64.882 C 100.723 66.296,100.562 70.491,103.407 71.977 L 104.313 72.450 119.297 72.450 C 135.584 72.450,135.101 72.478,136.275 71.474 C 138.461 69.602,138.039 66.233,135.459 64.978 L 134.659 64.589 119.594 64.532 L 104.528 64.476 103.681 64.882 "
    ></path>
    <path
        fill="#cc0033"
        d="M95.818 88.222 C 94.594 88.573,93.442 89.714,93.097 90.917 C 91.925 95.005,97.029 97.854,99.993 94.767 C 102.764 91.879,99.718 87.103,95.818 88.222 M107.828 88.169 C 103.948 89.464,103.856 94.737,107.692 95.893 C 109.098 96.317,119.926 96.090,121.030 95.614 C 124.266 94.218,124.069 89.472,120.730 88.379 C 119.982 88.134,108.493 87.947,107.828 88.169 "
    ></path>
    <path
        fill="#cc0033"
        d="M127.233 48.987 C 123.470 50.404,123.797 55.931,127.689 56.690 C 129.309 57.007,135.873 56.677,136.717 56.238 C 139.756 54.653,139.347 50.083,136.078 49.104 C 134.958 48.769,128.056 48.677,127.233 48.987 M71.071 64.730 C 69.332 65.351,68.200 67.186,68.446 68.983 C 69.134 73.996,76.515 73.451,76.510 68.388 C 76.508 65.741,73.639 63.812,71.071 64.730 "
    ></path>
    <path fill="#cc0033" d="M118.080 48.994 C 114.294 50.401,114.623 55.886,118.542 56.700 C 122.363 57.493,124.987 53.119,122.476 50.141 C 121.506 48.991,119.498 48.467,118.080 48.994 "></path>
    <path
        fill="#cc0033"
        d="M110.918 111.680 C 112.198 111.708,114.293 111.708,115.573 111.680 C 116.854 111.651,115.806 111.627,113.246 111.627 C 110.686 111.627,109.638 111.651,110.918 111.680 "
    ></path>
    <path
        fill="#cc0033"
        d="M118.117 88.148 C 118.515 88.184,119.125 88.183,119.471 88.147 C 119.818 88.110,119.492 88.081,118.747 88.082 C 118.003 88.082,117.719 88.112,118.117 88.148 M114.981 96.106 C 115.889 96.136,117.374 96.136,118.282 96.106 C 119.190 96.075,118.447 96.051,116.631 96.051 C 114.816 96.051,114.073 96.075,114.981 96.106 "
    ></path>
    <path
        fill="#cc0033"
        d="M133.851 48.874 C 134.152 48.911,134.685 48.912,135.036 48.875 C 135.388 48.838,135.142 48.808,134.490 48.807 C 133.838 48.806,133.551 48.836,133.851 48.874 M137.283 49.651 C 137.283 49.680,137.531 49.928,137.833 50.201 L 138.383 50.698 137.886 50.148 C 137.423 49.635,137.283 49.520,137.283 49.651 M138.846 52.814 C 138.846 53.140,138.881 53.273,138.923 53.110 C 138.966 52.948,138.966 52.681,138.923 52.518 C 138.881 52.355,138.846 52.488,138.846 52.814 M130.216 56.824 C 130.379 56.867,130.645 56.867,130.808 56.824 C 130.971 56.782,130.838 56.747,130.512 56.747 C 130.186 56.747,130.053 56.782,130.216 56.824 M131.239 64.620 C 131.871 64.653,132.861 64.652,133.439 64.619 C 134.017 64.586,133.500 64.560,132.289 64.560 C 131.079 64.560,130.606 64.587,131.239 64.620 "
    ></path>
</svg>
