<svg xmlns="http://www.w3.org/2000/svg" viewBox="0, 0, 400,300">
    <path
        fill="#cc0033"
        d="M290.802 115.660 C 286.847 117.722,285.600 119.275,285.600 122.137 C 285.600 127.738,294.615 128.657,299.698 123.575 C 305.266 118.007,298.259 111.772,290.802 115.660 M44.147 125.400 C 44.330 126.992,45.116 127.915,46.990 128.740 L 49.580 129.880 49.790 157.940 L 50.000 186.000 62.400 186.230 C 87.832 186.702,96.290 182.163,96.370 168.000 C 96.418 159.661,92.058 154.396,84.044 153.114 L 80.561 152.557 83.681 150.986 C 96.133 144.716,96.417 129.510,84.170 124.820 C 80.375 123.366,78.088 123.200,61.917 123.200 L 43.894 123.200 44.147 125.400 M75.310 131.066 C 82.021 137.062,77.584 150.400,68.879 150.400 C 67.462 150.400,67.200 150.885,67.200 153.501 L 67.200 156.602 71.655 156.971 C 87.397 158.277,84.792 180.171,68.874 180.343 L 63.600 180.400 63.388 155.608 C 63.272 141.972,63.350 130.362,63.563 129.808 C 64.376 127.689,72.505 128.559,75.310 131.066 M271.353 132.821 C 269.696 133.563,267.196 135.571,265.797 137.285 L 263.254 140.400 263.227 136.575 C 263.194 131.925,262.487 131.544,256.249 132.809 C 245.868 134.915,242.404 137.911,247.195 140.637 L 249.590 142.000 249.590 157.600 L 249.590 173.200 247.195 174.563 C 241.054 178.057,243.619 179.200,257.600 179.200 L 270.400 179.200 270.400 177.291 C 270.400 175.480,266.628 172.800,264.079 172.800 C 263.074 172.800,262.822 147.403,263.812 145.920 C 265.059 144.052,268.110 143.200,273.547 143.200 L 279.200 143.200 279.200 137.691 L 279.200 132.182 276.783 131.827 C 275.453 131.632,273.010 132.079,271.353 132.821 M113.879 133.650 C 101.514 137.569,100.324 146.400,112.160 146.400 L 118.400 146.400 118.400 141.600 C 118.400 136.856,118.427 136.800,120.681 136.800 C 129.121 136.800,130.400 139.372,130.400 156.340 L 130.400 169.559 128.040 170.779 C 122.382 173.705,117.010 171.503,116.266 165.953 C 115.686 161.633,118.619 157.971,123.678 156.697 C 126.902 155.885,129.442 150.400,126.594 150.400 C 119.250 150.400,105.565 157.115,103.277 161.841 C 96.867 175.082,109.702 184.542,124.291 177.332 C 131.385 173.826,131.032 173.862,131.347 176.600 L 131.600 178.800 140.200 179.027 C 149.756 179.279,151.937 177.710,146.405 174.563 L 144.010 173.200 144.001 158.800 C 143.990 142.656,143.439 139.606,139.911 136.156 C 135.450 131.795,123.393 130.634,113.879 133.650 M208.574 132.873 C 201.658 134.502,196.800 138.547,196.800 142.676 C 196.800 146.066,197.559 146.400,205.265 146.400 L 211.200 146.400 211.200 141.496 L 211.200 136.592 214.894 137.008 C 222.119 137.823,222.758 139.281,223.052 155.635 L 223.304 169.638 220.477 170.819 C 213.830 173.597,208.800 171.136,208.800 165.106 C 208.800 160.650,211.129 158.041,216.355 156.643 C 219.959 155.679,222.214 150.369,219.000 150.414 C 211.509 150.519,197.930 157.202,195.713 161.876 C 189.481 175.007,202.831 184.518,217.284 177.244 C 222.878 174.428,223.959 174.518,223.988 177.800 C 223.999 179.048,224.957 179.200,232.800 179.200 C 242.524 179.200,244.657 177.680,239.270 174.588 L 236.940 173.251 236.659 157.625 C 236.358 140.940,235.996 139.261,231.876 135.477 C 228.363 132.249,216.739 130.951,208.574 132.873 M291.793 133.250 C 282.635 135.469,280.210 138.028,284.795 140.637 L 287.190 142.000 287.190 157.600 L 287.190 173.200 284.795 174.563 C 278.828 177.958,281.293 179.200,294.000 179.200 C 306.707 179.200,309.172 177.958,303.205 174.563 L 300.810 173.200 300.805 153.086 C 300.799 129.437,301.466 130.906,291.793 133.250 M322.857 132.898 C 316.163 134.467,311.200 139.003,311.200 143.552 C 311.200 145.976,312.459 146.400,319.665 146.400 L 325.600 146.400 325.600 141.496 L 325.600 136.592 329.374 137.017 C 332.283 137.345,333.658 138.013,335.374 139.934 L 337.600 142.425 337.600 156.053 L 337.600 169.682 334.826 170.841 C 328.334 173.553,323.200 170.950,323.200 164.945 C 323.200 161.001,326.084 157.892,330.953 156.590 C 334.385 155.672,336.481 150.379,333.400 150.410 C 320.445 150.541,308.130 159.944,309.004 169.037 C 310.197 181.452,319.607 183.311,337.006 174.567 C 337.340 174.400,337.835 175.373,338.106 176.731 L 338.600 179.200 347.300 179.200 C 356.958 179.200,359.050 177.661,353.605 174.563 L 351.210 173.200 351.205 160.309 C 351.197 139.939,349.443 135.186,341.076 132.863 C 337.410 131.845,327.264 131.865,322.857 132.898 M146.400 134.628 C 146.400 135.799,147.239 136.951,148.737 137.835 C 150.165 138.679,151.565 140.535,152.337 142.608 C 153.032 144.474,156.252 153.380,159.492 162.400 L 165.383 178.800 170.605 179.035 L 175.826 179.269 177.050 175.835 C 177.723 173.946,179.713 168.620,181.472 164.000 C 183.231 159.380,185.996 151.984,187.615 147.564 C 190.253 140.363,190.863 139.365,193.479 137.962 C 199.580 134.693,197.681 133.231,187.000 132.975 L 177.600 132.749 177.600 134.754 C 177.600 136.184,178.306 137.124,180.065 138.034 C 181.555 138.804,182.364 139.741,182.110 140.402 C 181.879 141.003,180.011 146.803,177.958 153.291 C 175.593 160.763,174.002 164.668,173.618 163.944 C 173.285 163.315,170.764 156.050,168.017 147.800 L 163.022 132.800 154.711 132.800 C 146.588 132.800,146.400 132.841,146.400 134.628 "
    ></path>
</svg>
