<svg xmlns="http://www.w3.org/2000/svg" viewBox="0, 0, 400,133.02540415704388">
    <g id="svgg">
        <path
            fill="#cc0033"
            d="M148.410 70.542 C 148.367 70.656,148.350 79.412,148.374 90.000 L 148.417 109.250 151.458 109.295 L 154.500 109.341 154.500 100.349 C 154.500 93.174,154.544 91.313,154.718 91.137 C 154.837 91.016,154.985 90.785,155.046 90.625 C 155.107 90.465,155.234 90.333,155.328 90.333 C 155.423 90.333,155.500 90.146,155.500 89.917 C 155.500 89.657,155.594 89.500,155.750 89.500 C 155.887 89.500,156.000 89.414,156.000 89.308 C 156.000 88.994,157.504 87.671,157.978 87.569 C 158.219 87.517,158.567 87.410,158.750 87.331 C 159.319 87.087,160.972 86.880,161.200 87.024 C 161.319 87.100,161.698 87.163,162.042 87.164 C 162.385 87.166,162.667 87.242,162.667 87.333 C 162.667 87.425,162.811 87.500,162.988 87.500 C 163.165 87.500,163.422 87.612,163.560 87.750 C 163.697 87.888,163.852 88.000,163.905 88.000 C 164.035 88.000,164.667 88.641,164.667 88.773 C 164.667 88.831,164.854 89.052,165.083 89.265 C 165.313 89.477,165.500 89.827,165.500 90.044 C 165.500 90.260,165.610 90.582,165.745 90.760 C 165.879 90.938,165.992 91.295,165.995 91.554 C 165.998 91.812,166.112 92.136,166.250 92.274 C 166.466 92.489,166.500 93.680,166.500 100.932 L 166.500 109.341 169.500 109.295 L 172.501 109.250 172.520 100.444 C 172.533 94.161,172.486 91.586,172.353 91.453 C 172.250 91.350,172.167 90.724,172.167 90.050 C 172.167 89.080,172.116 88.833,171.917 88.833 C 171.775 88.833,171.667 88.684,171.667 88.488 C 171.667 88.298,171.554 88.030,171.417 87.893 C 171.279 87.755,171.167 87.503,171.167 87.331 C 171.167 87.160,171.092 86.973,171.000 86.917 C 170.908 86.860,170.833 86.677,170.833 86.511 C 170.833 86.344,170.721 86.114,170.583 86.000 C 170.446 85.886,170.333 85.689,170.333 85.563 C 170.333 85.258,169.775 84.712,169.390 84.639 C 169.221 84.607,169.008 84.410,168.917 84.200 C 168.825 83.991,168.581 83.777,168.375 83.725 C 168.169 83.673,168.000 83.564,168.000 83.482 C 168.000 83.400,167.859 83.333,167.687 83.333 C 167.515 83.333,167.281 83.221,167.167 83.083 C 167.053 82.946,166.865 82.833,166.750 82.833 C 166.635 82.833,166.459 82.734,166.358 82.613 C 165.979 82.157,160.975 82.155,160.214 82.612 C 160.011 82.734,159.762 82.833,159.661 82.833 C 159.559 82.833,159.364 82.946,159.226 83.083 C 159.089 83.221,158.838 83.333,158.669 83.333 C 158.500 83.333,158.040 83.633,157.646 84.000 C 157.253 84.367,156.839 84.667,156.726 84.667 C 156.614 84.667,156.359 84.955,156.162 85.307 C 155.964 85.659,155.584 86.076,155.317 86.233 C 154.528 86.699,154.500 86.413,154.500 77.989 L 154.500 70.333 151.495 70.333 C 149.244 70.333,148.470 70.386,148.410 70.542 M40.239 72.018 C 40.188 72.100,38.891 72.167,37.357 72.167 C 35.347 72.167,34.508 72.225,34.358 72.375 C 34.128 72.605,34.084 72.616,33.260 72.646 L 32.686 72.667 32.718 90.958 L 32.750 109.250 33.417 109.339 C 33.783 109.388,34.181 109.489,34.301 109.563 C 34.620 109.761,46.792 109.700,47.168 109.499 C 47.338 109.408,47.952 109.331,48.531 109.328 C 49.191 109.325,49.704 109.231,49.907 109.078 C 50.085 108.943,50.508 108.833,50.847 108.833 C 51.242 108.833,51.499 108.743,51.560 108.583 C 51.621 108.425,51.877 108.333,52.257 108.333 C 52.587 108.333,52.977 108.214,53.123 108.068 C 53.298 107.892,53.547 107.834,53.861 107.897 C 54.174 107.960,54.334 107.923,54.335 107.787 C 54.336 107.675,54.673 107.435,55.085 107.254 C 55.497 107.073,55.833 106.872,55.833 106.807 C 55.833 106.742,55.986 106.641,56.172 106.582 C 56.358 106.523,56.707 106.292,56.946 106.070 C 57.186 105.848,57.486 105.667,57.613 105.667 C 57.740 105.667,57.887 105.554,57.940 105.417 C 57.992 105.279,58.108 105.167,58.197 105.167 C 58.432 105.167,60.833 102.689,60.833 102.446 C 60.833 102.333,60.989 102.108,61.178 101.945 C 61.368 101.783,61.600 101.429,61.695 101.158 C 61.789 100.888,61.934 100.667,62.016 100.667 C 62.099 100.667,62.167 100.479,62.167 100.250 C 62.167 99.836,62.681 99.167,63.000 99.167 C 63.092 99.167,63.167 98.871,63.167 98.510 C 63.167 98.149,63.233 97.812,63.314 97.762 C 63.396 97.711,63.512 97.407,63.572 97.085 C 63.632 96.763,63.753 96.500,63.841 96.500 C 63.928 96.500,64.000 96.130,64.000 95.679 C 64.000 95.171,64.095 94.762,64.250 94.607 C 64.571 94.287,64.630 85.738,64.312 85.632 C 64.209 85.597,64.086 85.160,64.039 84.660 C 63.992 84.159,63.902 83.712,63.839 83.667 C 63.589 83.485,63.167 82.422,63.167 81.974 C 63.167 81.664,63.080 81.500,62.917 81.500 C 62.779 81.500,62.667 81.397,62.667 81.270 C 62.667 81.144,62.554 80.947,62.417 80.833 C 62.279 80.719,62.167 80.448,62.167 80.230 C 62.167 80.012,62.097 79.833,62.011 79.833 C 61.926 79.833,61.813 79.699,61.761 79.534 C 61.708 79.369,61.366 78.913,60.999 78.520 C 60.633 78.127,60.333 77.699,60.333 77.569 C 60.333 77.440,60.255 77.333,60.160 77.333 C 59.870 77.333,59.000 76.619,59.000 76.381 C 59.000 76.259,58.810 76.086,58.579 75.998 C 58.347 75.910,57.954 75.649,57.705 75.419 C 57.457 75.189,57.121 75.000,56.960 75.000 C 56.799 75.000,56.667 74.887,56.667 74.750 C 56.667 74.612,56.523 74.500,56.347 74.500 C 55.986 74.500,55.003 73.983,55.001 73.792 C 55.000 73.723,54.773 73.667,54.495 73.667 C 54.199 73.667,53.950 73.563,53.894 73.417 C 53.826 73.241,53.553 73.167,52.977 73.167 C 52.401 73.167,52.128 73.092,52.060 72.917 C 51.998 72.756,51.741 72.667,51.336 72.667 C 50.990 72.667,50.620 72.561,50.513 72.432 C 50.225 72.086,40.441 71.691,40.239 72.018 M109.476 76.112 C 109.375 76.234,109.166 76.333,109.011 76.333 C 108.857 76.333,108.585 76.443,108.407 76.578 C 108.229 76.713,107.746 76.828,107.333 76.834 C 106.921 76.840,106.396 76.952,106.167 77.083 C 105.938 77.214,105.506 77.324,105.208 77.327 L 104.667 77.333 104.667 79.563 C 104.667 80.789,104.620 82.026,104.563 82.313 L 104.458 82.833 102.641 82.833 L 100.823 82.833 100.870 84.958 L 100.917 87.083 102.661 87.131 C 103.796 87.162,104.451 87.250,104.536 87.381 C 104.609 87.492,104.662 91.182,104.655 95.579 C 104.646 101.136,104.697 103.593,104.821 103.635 C 104.920 103.668,105.000 103.919,105.000 104.192 C 105.000 104.466,105.112 104.803,105.250 104.940 C 105.388 105.078,105.500 105.405,105.500 105.667 C 105.500 105.929,105.612 106.255,105.750 106.393 C 105.888 106.530,106.000 106.780,106.000 106.948 C 106.000 107.471,107.485 108.841,108.500 109.256 C 108.638 109.312,108.880 109.427,109.039 109.512 C 109.199 109.597,109.583 109.667,109.894 109.667 C 111.077 109.667,111.537 109.845,111.455 110.274 C 111.381 110.661,111.398 110.666,112.731 110.654 C 113.475 110.646,113.990 110.603,113.875 110.556 C 112.945 110.181,114.087 109.675,115.898 109.661 C 117.033 109.653,117.188 109.423,117.132 107.838 C 117.102 107.003,117.002 106.404,116.875 106.299 C 116.760 106.204,116.667 105.873,116.667 105.563 L 116.667 105.000 114.667 105.000 C 113.524 105.000,112.667 104.933,112.667 104.843 C 112.667 104.756,112.442 104.553,112.167 104.390 C 111.892 104.228,111.667 104.006,111.667 103.899 C 111.667 103.791,111.554 103.659,111.417 103.606 C 111.236 103.537,111.167 103.254,111.167 102.589 C 111.167 101.880,111.109 101.667,110.917 101.667 C 110.592 101.667,110.532 87.436,110.856 87.236 C 110.961 87.171,112.423 87.133,114.106 87.152 L 117.167 87.184 117.167 85.009 L 117.167 82.833 114.117 82.833 C 110.323 82.833,110.667 83.191,110.667 79.236 L 110.667 76.038 110.164 75.964 C 109.866 75.920,109.585 75.981,109.476 76.112 M47.593 76.745 C 47.771 76.879,48.198 76.992,48.542 76.995 C 48.885 76.998,49.167 77.075,49.167 77.167 C 49.167 77.258,49.415 77.333,49.718 77.333 C 50.021 77.333,50.415 77.443,50.593 77.578 C 50.771 77.713,51.112 77.825,51.350 77.828 C 51.631 77.831,51.918 78.009,52.167 78.333 C 52.377 78.608,52.691 78.833,52.863 78.833 C 53.036 78.833,53.220 78.946,53.273 79.083 C 53.326 79.221,53.451 79.333,53.550 79.333 C 53.811 79.333,54.667 80.188,54.667 80.448 C 54.667 80.568,54.779 80.667,54.917 80.667 C 55.054 80.667,55.167 80.747,55.167 80.844 C 55.167 80.942,55.392 81.211,55.667 81.442 C 55.942 81.674,56.167 82.002,56.167 82.172 C 56.167 82.341,56.242 82.527,56.333 82.583 C 56.425 82.640,56.500 82.823,56.500 82.989 C 56.500 83.156,56.612 83.386,56.750 83.500 C 56.887 83.614,57.000 83.840,57.000 84.003 C 57.000 84.165,57.112 84.341,57.250 84.394 C 57.436 84.465,57.500 84.763,57.500 85.564 C 57.500 86.276,57.570 86.662,57.708 86.708 C 58.034 86.817,58.062 93.083,57.740 93.734 C 57.608 94.000,57.500 94.647,57.500 95.172 C 57.500 95.817,57.419 96.193,57.250 96.333 C 57.112 96.447,57.000 96.682,57.000 96.854 C 57.000 97.026,56.887 97.167,56.750 97.167 C 56.569 97.167,56.500 97.352,56.500 97.833 C 56.500 98.200,56.433 98.500,56.351 98.500 C 56.270 98.500,56.153 98.697,56.093 98.938 C 55.976 99.404,55.146 100.333,54.846 100.333 C 54.747 100.333,54.667 100.558,54.667 100.833 C 54.667 101.198,54.588 101.334,54.375 101.335 C 54.215 101.335,53.635 101.748,53.087 102.251 C 52.539 102.755,52.004 103.167,51.899 103.167 C 51.794 103.167,51.614 103.279,51.500 103.417 C 51.386 103.554,51.146 103.667,50.968 103.667 C 50.789 103.667,50.530 103.779,50.393 103.917 C 50.255 104.054,49.929 104.167,49.669 104.167 C 49.408 104.167,49.169 104.223,49.139 104.292 C 48.880 104.874,39.167 105.442,39.167 104.875 C 39.164 102.520,39.162 78.482,39.164 77.875 C 39.166 77.210,39.227 77.000,39.417 77.000 C 39.554 77.000,39.667 76.930,39.667 76.846 C 39.667 76.432,47.055 76.338,47.593 76.745 M133.853 82.298 C 132.670 82.330,132.012 82.423,131.774 82.589 C 131.583 82.724,131.287 82.833,131.118 82.833 C 130.948 82.833,130.697 82.946,130.560 83.083 C 130.422 83.221,130.023 83.333,129.673 83.333 C 129.260 83.333,129.002 83.421,128.940 83.583 C 128.887 83.721,128.702 83.833,128.530 83.833 C 128.357 83.833,128.013 84.021,127.766 84.250 C 127.518 84.479,127.170 84.667,126.991 84.667 C 126.813 84.667,126.667 84.779,126.667 84.917 C 126.667 85.054,126.586 85.167,126.488 85.167 C 126.263 85.167,125.833 85.589,125.833 85.810 C 125.833 85.902,125.627 86.002,125.375 86.031 C 125.015 86.072,124.905 86.182,124.864 86.542 C 124.835 86.794,124.736 87.000,124.644 87.000 C 124.425 87.000,124.093 87.341,123.954 87.708 C 123.893 87.869,123.766 88.000,123.672 88.000 C 123.577 88.000,123.500 88.146,123.500 88.325 C 123.500 88.504,123.399 88.710,123.276 88.783 C 123.153 88.857,122.914 89.235,122.744 89.625 C 122.575 90.015,122.375 90.333,122.301 90.333 C 122.227 90.333,122.167 90.656,122.167 91.051 C 122.167 91.446,122.057 91.915,121.922 92.093 C 121.787 92.271,121.675 92.651,121.672 92.938 C 121.669 93.225,121.554 93.553,121.417 93.667 C 121.214 93.835,121.167 94.364,121.167 96.449 C 121.167 98.515,121.216 99.073,121.417 99.274 C 121.554 99.411,121.667 99.734,121.667 99.991 C 121.667 100.249,121.779 100.553,121.917 100.667 C 122.062 100.787,122.167 101.151,122.167 101.532 C 122.167 101.895,122.279 102.303,122.417 102.440 C 122.554 102.578,122.667 102.835,122.667 103.012 C 122.667 103.189,122.733 103.333,122.814 103.333 C 122.895 103.333,123.005 103.465,123.059 103.625 C 123.198 104.040,123.548 104.561,123.792 104.717 C 123.906 104.790,124.000 104.996,124.000 105.175 C 124.000 105.354,124.059 105.500,124.132 105.500 C 124.205 105.500,124.823 106.026,125.507 106.670 C 126.785 107.873,127.484 108.333,128.031 108.333 C 128.203 108.333,128.387 108.446,128.440 108.583 C 128.492 108.721,128.642 108.833,128.773 108.833 C 128.904 108.833,129.051 108.940,129.101 109.069 C 129.161 109.226,129.452 109.306,129.966 109.306 C 130.392 109.306,130.768 109.387,130.801 109.486 C 130.834 109.585,131.174 109.667,131.556 109.668 C 133.436 109.670,134.985 109.883,135.056 110.149 C 135.121 110.391,135.130 110.390,135.147 110.145 C 135.168 109.849,137.023 109.615,138.798 109.685 C 139.292 109.705,139.765 109.635,139.873 109.527 C 139.980 109.420,140.388 109.333,140.781 109.333 C 141.906 109.333,142.167 109.000,142.167 107.567 C 142.167 106.710,142.096 106.316,141.917 106.167 C 141.751 106.029,141.667 105.656,141.667 105.056 L 141.667 104.153 141.210 104.577 C 140.810 104.948,140.607 105.000,139.564 105.000 C 138.883 105.000,138.118 105.107,137.776 105.250 C 137.447 105.388,136.805 105.500,136.351 105.500 C 135.838 105.500,135.429 105.405,135.274 105.250 C 135.102 105.079,134.680 105.000,133.929 105.000 C 133.326 105.000,132.833 104.930,132.833 104.845 C 132.833 104.759,132.668 104.637,132.466 104.573 C 132.264 104.508,131.996 104.353,131.871 104.228 C 131.745 104.103,131.536 104.000,131.405 104.000 C 131.274 104.000,131.167 103.925,131.167 103.833 C 131.167 103.742,131.085 103.667,130.985 103.667 C 130.679 103.667,129.167 101.990,129.167 101.651 C 129.167 101.476,129.054 101.333,128.917 101.333 C 128.779 101.333,128.667 101.253,128.667 101.155 C 128.667 101.057,128.554 100.864,128.417 100.726 C 128.279 100.589,128.167 100.263,128.167 100.002 C 128.167 99.741,128.098 99.503,128.015 99.472 C 127.881 99.423,127.651 97.123,127.667 96.000 C 127.690 94.412,127.885 92.803,128.062 92.735 C 128.187 92.687,128.239 92.435,128.198 92.080 C 128.149 91.660,128.204 91.475,128.399 91.401 C 128.546 91.344,128.667 91.201,128.667 91.083 C 128.667 90.965,128.779 90.826,128.917 90.773 C 129.054 90.720,129.167 90.552,129.167 90.400 C 129.167 90.023,131.263 88.000,131.653 88.000 C 131.824 88.000,132.008 87.888,132.060 87.750 C 132.113 87.612,132.334 87.500,132.550 87.500 C 132.767 87.500,132.998 87.447,133.063 87.381 C 133.749 86.695,138.507 86.323,139.000 86.917 C 139.114 87.054,139.446 87.167,139.737 87.167 C 140.028 87.167,140.338 87.232,140.425 87.311 C 140.512 87.391,140.827 87.501,141.125 87.557 L 141.667 87.658 141.667 86.574 C 141.667 85.818,141.735 85.463,141.891 85.403 C 142.673 85.104,142.007 82.833,141.138 82.833 C 140.939 82.833,140.658 82.729,140.513 82.601 C 140.228 82.350,137.110 82.208,133.853 82.298 M71.333 92.345 C 71.333 100.578,71.367 101.891,71.583 102.107 C 71.744 102.268,71.833 102.680,71.833 103.262 C 71.833 103.760,71.894 104.167,71.969 104.167 C 72.151 104.167,72.667 105.266,72.667 105.654 C 72.667 105.825,72.779 106.008,72.917 106.060 C 73.054 106.113,73.167 106.346,73.167 106.578 C 73.167 106.848,73.260 107.000,73.424 107.000 C 73.566 107.000,73.810 107.225,73.966 107.499 C 74.122 107.773,74.337 107.998,74.444 107.999 C 74.626 108.000,75.116 108.363,75.851 109.042 C 76.025 109.202,76.312 109.333,76.490 109.333 C 76.668 109.333,76.860 109.408,76.917 109.500 C 76.973 109.592,77.409 109.674,77.885 109.683 C 79.326 109.711,80.347 110.301,79.385 110.550 C 79.219 110.593,79.683 110.628,80.417 110.628 C 81.150 110.628,81.614 110.593,81.449 110.550 C 80.439 110.288,81.537 109.722,83.125 109.686 C 83.606 109.676,84.000 109.592,84.000 109.500 C 84.000 109.408,84.178 109.333,84.396 109.333 C 84.614 109.333,84.886 109.221,85.000 109.083 C 85.114 108.946,85.314 108.833,85.445 108.833 C 85.576 108.833,85.856 108.646,86.069 108.417 C 86.281 108.188,86.544 108.000,86.654 108.000 C 86.924 108.000,88.500 106.338,88.500 106.053 C 88.500 105.779,89.232 105.472,89.573 105.602 C 89.707 105.654,89.908 106.120,90.021 106.639 C 90.288 107.867,90.279 107.804,90.308 108.625 L 90.333 109.333 92.819 109.333 C 95.586 109.333,95.524 109.363,95.283 108.177 C 95.198 107.759,95.094 101.885,95.052 95.125 L 94.975 82.833 92.074 82.833 L 89.173 82.833 89.109 91.125 C 89.047 99.115,88.972 100.734,88.650 101.075 C 88.567 101.162,88.500 101.363,88.500 101.521 C 88.500 101.680,88.400 101.909,88.278 102.031 C 88.156 102.153,88.005 102.440,87.942 102.668 C 87.879 102.897,87.527 103.308,87.159 103.583 C 86.792 103.858,86.386 104.177,86.257 104.292 C 86.129 104.406,85.953 104.500,85.866 104.500 C 85.779 104.500,85.614 104.612,85.500 104.750 C 85.174 105.143,80.992 105.109,80.369 104.709 C 79.464 104.126,78.333 102.802,78.333 102.325 C 78.333 102.073,78.221 101.826,78.083 101.773 C 77.946 101.720,77.833 101.531,77.833 101.352 C 77.833 101.174,77.754 101.001,77.658 100.969 C 77.537 100.929,77.486 98.068,77.494 91.872 L 77.506 82.833 74.420 82.833 L 71.333 82.833 71.333 92.345 "
        ></path>
        <path
            fill="#cc0033"
            d="M181.715 36.708 L 181.750 51.083 183.208 51.131 L 184.667 51.180 184.667 36.756 L 184.667 22.333 183.173 22.333 L 181.679 22.333 181.715 36.708 M167.667 29.797 C 167.346 29.830,167.012 29.927,166.925 30.012 C 166.838 30.097,166.514 30.167,166.205 30.167 C 165.896 30.167,165.530 30.279,165.393 30.417 C 165.255 30.554,165.006 30.667,164.839 30.667 C 164.672 30.667,164.492 30.779,164.440 30.917 C 164.387 31.054,164.235 31.167,164.102 31.167 C 163.969 31.167,163.548 31.467,163.167 31.833 C 162.785 32.200,162.365 32.500,162.232 32.500 C 162.100 32.500,161.923 32.680,161.839 32.900 C 161.756 33.121,161.608 33.350,161.510 33.410 C 161.413 33.470,161.333 33.633,161.333 33.772 C 161.333 33.910,161.240 34.128,161.125 34.256 C 160.586 34.857,160.500 35.013,160.500 35.389 C 160.500 35.611,160.387 35.886,160.250 36.000 C 160.112 36.114,160.000 36.446,160.000 36.739 C 160.000 37.031,159.890 37.415,159.755 37.593 C 159.419 38.038,159.415 40.914,159.750 41.500 C 159.881 41.729,159.991 42.189,159.994 42.521 C 159.997 42.854,160.112 43.219,160.250 43.333 C 160.387 43.447,160.500 43.760,160.500 44.028 C 160.500 44.316,160.670 44.698,160.917 44.964 C 161.146 45.211,161.333 45.548,161.333 45.712 C 161.333 45.876,161.446 46.054,161.583 46.106 C 161.721 46.159,161.833 46.382,161.833 46.601 C 161.833 46.877,161.928 47.000,162.139 47.000 C 162.308 47.000,162.623 47.277,162.847 47.623 C 163.069 47.965,163.400 48.272,163.583 48.303 C 163.767 48.335,163.992 48.452,164.083 48.563 C 164.300 48.824,165.390 49.333,165.734 49.333 C 165.880 49.333,166.000 49.399,166.000 49.479 C 166.000 49.559,166.383 49.661,166.851 49.706 C 167.319 49.751,167.750 49.862,167.809 49.952 C 167.868 50.042,168.436 50.163,169.072 50.221 C 169.707 50.279,170.303 50.403,170.397 50.497 C 170.611 50.711,175.111 50.725,175.243 50.512 C 175.295 50.426,175.750 50.305,176.253 50.242 L 177.167 50.128 177.167 39.981 C 177.167 30.432,177.149 29.833,176.875 29.821 C 175.595 29.769,168.126 29.749,167.667 29.797 M189.754 29.874 C 189.531 29.999,189.500 31.234,189.500 40.064 L 189.500 50.112 190.625 50.326 C 192.051 50.597,196.294 50.740,196.555 50.525 C 196.662 50.437,197.192 50.311,197.732 50.244 C 198.272 50.177,198.910 50.020,199.149 49.896 C 199.388 49.771,199.828 49.668,200.127 49.668 C 200.426 49.667,200.801 49.600,200.961 49.518 C 201.120 49.437,201.550 49.231,201.917 49.060 C 202.283 48.890,202.643 48.656,202.717 48.542 C 202.790 48.427,202.940 48.333,203.050 48.332 C 203.272 48.331,205.000 46.791,205.000 46.595 C 205.000 46.434,206.046 44.933,206.208 44.861 C 206.277 44.831,206.333 44.602,206.333 44.353 C 206.333 44.104,206.427 43.806,206.542 43.692 C 206.656 43.578,206.808 42.831,206.878 42.034 C 206.949 41.236,207.050 40.144,207.102 39.607 C 207.162 38.997,207.130 38.563,207.016 38.449 C 206.915 38.349,206.833 37.691,206.833 36.987 C 206.833 36.053,206.766 35.651,206.583 35.500 C 206.446 35.386,206.333 35.120,206.333 34.910 C 206.333 34.690,206.049 34.232,205.667 33.833 C 205.300 33.452,205.000 33.040,205.000 32.919 C 205.000 32.798,204.681 32.511,204.291 32.283 C 203.902 32.055,203.440 31.710,203.266 31.517 C 203.091 31.324,202.825 31.167,202.675 31.167 C 202.524 31.167,202.217 30.945,201.992 30.674 C 201.657 30.270,201.453 30.180,200.864 30.174 C 200.468 30.170,199.981 30.075,199.781 29.962 C 199.352 29.721,190.172 29.641,189.754 29.874 M173.153 31.900 C 173.260 32.029,173.531 32.180,173.757 32.237 C 174.253 32.361,174.215 31.589,174.170 40.583 C 174.150 44.579,174.071 47.607,173.984 47.639 C 173.901 47.669,173.833 47.801,173.833 47.931 C 173.833 48.254,169.534 48.281,169.409 47.958 C 169.362 47.839,168.959 47.729,168.461 47.701 C 167.984 47.673,167.554 47.593,167.505 47.521 C 167.456 47.450,167.159 47.247,166.844 47.071 C 166.228 46.725,165.945 46.504,165.217 45.795 C 164.163 44.769,163.833 44.335,163.828 43.969 C 163.825 43.757,163.713 43.438,163.578 43.260 C 163.419 43.050,163.333 42.542,163.333 41.811 C 163.333 41.193,163.258 40.640,163.167 40.583 C 163.075 40.527,163.000 40.072,163.000 39.573 C 163.000 39.075,163.075 38.667,163.167 38.667 C 163.261 38.667,163.333 38.193,163.333 37.578 C 163.333 36.764,163.396 36.465,163.583 36.394 C 163.738 36.334,163.833 36.081,163.833 35.727 C 163.833 35.373,163.928 35.120,164.083 35.060 C 164.221 35.008,164.333 34.860,164.333 34.732 C 164.333 34.604,164.427 34.497,164.542 34.492 C 164.656 34.488,164.975 34.196,165.250 33.844 C 165.758 33.192,166.668 32.667,167.288 32.667 C 167.477 32.667,167.674 32.554,167.727 32.417 C 167.784 32.269,168.034 32.167,168.340 32.167 C 168.624 32.167,168.970 32.054,169.107 31.917 C 169.456 31.568,172.866 31.554,173.153 31.900 M197.727 31.918 C 197.990 32.055,198.337 32.167,198.499 32.167 C 198.660 32.167,198.886 32.279,199.000 32.417 C 199.114 32.554,199.423 32.667,199.687 32.667 C 199.951 32.667,200.167 32.742,200.167 32.833 C 200.167 32.925,200.305 33.000,200.474 33.000 C 200.793 33.000,202.000 34.061,202.000 34.341 C 202.000 34.429,202.112 34.500,202.250 34.500 C 202.391 34.500,202.500 34.649,202.500 34.841 C 202.500 35.029,202.699 35.367,202.941 35.591 C 203.272 35.898,203.402 36.210,203.463 36.837 C 203.507 37.297,203.608 37.714,203.688 37.763 C 203.907 37.899,203.869 41.564,203.646 41.787 C 203.543 41.890,203.435 42.329,203.406 42.763 C 203.377 43.196,203.282 43.596,203.195 43.651 C 203.108 43.705,202.864 44.087,202.652 44.500 C 202.441 44.913,202.226 45.288,202.176 45.333 C 202.125 45.379,202.003 45.562,201.906 45.739 C 201.808 45.916,201.586 46.141,201.413 46.239 C 201.239 46.337,200.995 46.510,200.870 46.625 C 200.745 46.740,200.562 46.833,200.462 46.833 C 200.363 46.833,200.022 47.031,199.705 47.273 C 199.272 47.603,198.921 47.717,198.287 47.731 C 197.776 47.743,197.417 47.832,197.375 47.958 C 197.324 48.111,196.729 48.167,195.165 48.167 L 193.024 48.167 192.930 47.292 C 192.814 46.213,192.883 32.395,193.004 32.273 C 193.639 31.639,196.744 31.405,197.727 31.918 M167.485 56.958 C 167.476 57.210,167.482 57.735,167.497 58.125 C 167.513 58.537,167.450 58.833,167.346 58.833 C 166.927 58.833,167.212 59.301,167.688 59.396 C 167.975 59.453,175.213 59.496,183.772 59.491 L 199.333 59.483 199.333 57.991 L 199.333 56.500 183.417 56.500 L 167.500 56.500 167.485 56.958 M180.778 70.444 C 180.717 70.506,180.667 79.281,180.667 89.944 L 180.667 109.333 182.833 109.333 L 185.000 109.333 185.008 107.792 C 185.012 106.944,185.014 104.638,185.013 102.667 C 185.012 100.696,185.009 92.615,185.006 84.708 L 185.000 70.333 182.944 70.333 C 181.814 70.333,180.839 70.383,180.778 70.444 M348.500 89.842 L 348.500 109.350 349.458 109.300 L 350.417 109.250 350.450 103.768 C 350.484 98.019,350.499 97.833,350.916 97.833 C 351.058 97.833,351.247 97.644,351.334 97.414 C 351.422 97.183,351.683 96.922,351.914 96.834 C 352.144 96.747,352.333 96.561,352.333 96.421 C 352.333 96.018,352.958 95.500,353.443 95.500 C 353.882 95.500,354.833 96.348,354.833 96.739 C 354.833 96.838,355.170 97.293,355.581 97.751 C 355.992 98.209,356.329 98.715,356.331 98.875 C 356.332 99.035,356.414 99.167,356.512 99.167 C 356.696 99.167,357.167 99.573,357.167 99.732 C 357.167 99.782,357.394 100.054,357.671 100.338 C 357.948 100.622,358.372 101.168,358.612 101.552 C 358.852 101.936,359.150 102.310,359.274 102.383 C 359.398 102.457,359.500 102.607,359.500 102.717 C 359.500 102.896,360.049 103.588,361.000 104.607 C 361.184 104.803,361.333 105.053,361.333 105.163 C 361.333 105.273,361.746 105.765,362.250 106.257 C 362.754 106.749,363.167 107.271,363.167 107.417 C 363.167 108.065,364.743 109.305,365.604 109.335 C 366.788 109.376,367.106 109.345,366.913 109.206 C 366.819 109.138,366.611 108.877,366.451 108.625 C 366.290 108.373,366.048 108.167,365.913 108.167 C 365.777 108.167,365.667 108.025,365.667 107.851 C 365.667 107.678,365.554 107.492,365.417 107.440 C 365.279 107.387,365.167 107.256,365.167 107.149 C 365.167 107.042,364.988 106.789,364.769 106.587 C 364.551 106.384,364.321 106.057,364.258 105.859 C 364.196 105.662,364.074 105.500,363.989 105.500 C 363.903 105.500,363.833 105.396,363.833 105.268 C 363.833 105.140,363.727 104.995,363.596 104.945 C 363.381 104.862,362.000 103.123,362.000 102.935 C 362.000 102.892,361.587 102.423,361.083 101.894 C 360.579 101.365,360.167 100.849,360.167 100.748 C 360.167 100.646,359.942 100.347,359.667 100.083 C 359.392 99.820,359.167 99.520,359.167 99.417 C 359.167 99.195,358.191 98.167,357.980 98.167 C 357.899 98.167,357.833 98.017,357.833 97.833 C 357.833 97.650,357.763 97.500,357.678 97.500 C 357.592 97.500,357.472 97.343,357.411 97.150 C 357.350 96.958,356.895 96.392,356.400 95.893 C 355.905 95.394,355.500 94.946,355.500 94.897 C 355.500 94.849,355.387 94.697,355.250 94.560 C 354.774 94.083,355.537 92.667,356.270 92.667 C 356.396 92.667,356.500 92.522,356.500 92.345 C 356.500 92.164,356.653 91.974,356.850 91.911 C 357.308 91.766,357.833 91.233,357.833 90.913 C 357.833 90.774,358.002 90.581,358.208 90.485 C 358.415 90.390,358.767 90.016,358.992 89.656 C 359.275 89.201,359.518 89.000,359.784 89.000 C 360.056 89.000,360.167 88.903,360.167 88.667 C 360.167 88.281,360.649 87.748,361.140 87.592 C 361.326 87.533,361.502 87.320,361.531 87.119 C 361.560 86.916,361.726 86.726,361.904 86.692 C 362.264 86.624,362.819 86.030,362.828 85.704 C 362.831 85.587,363.023 85.420,363.254 85.332 C 363.486 85.244,363.722 85.039,363.778 84.878 C 363.835 84.716,364.189 84.302,364.566 83.959 L 365.250 83.334 364.147 83.334 C 363.078 83.333,363.023 83.354,362.397 84.000 C 362.041 84.366,361.656 84.666,361.542 84.667 C 361.427 84.667,361.333 84.779,361.333 84.917 C 361.333 85.054,361.256 85.167,361.163 85.167 C 361.069 85.167,360.920 85.354,360.833 85.583 C 360.736 85.838,360.544 86.000,360.337 86.000 C 360.145 86.000,360.000 86.110,360.000 86.257 C 360.000 86.605,359.322 87.500,359.058 87.500 C 358.941 87.500,358.761 87.657,358.659 87.848 C 358.556 88.040,357.579 89.086,356.486 90.174 C 355.394 91.261,354.500 92.192,354.500 92.242 C 354.500 92.377,353.854 92.999,353.708 93.005 C 353.640 93.008,353.257 93.460,352.857 94.010 C 352.458 94.560,351.924 95.117,351.670 95.248 C 351.417 95.379,351.169 95.640,351.120 95.827 C 351.024 96.192,350.501 96.303,350.499 95.958 C 350.498 95.844,350.491 90.162,350.482 83.333 C 350.464 68.986,350.575 70.333,349.405 70.333 L 348.500 70.333 348.500 89.842 M270.250 71.803 C 269.883 71.832,269.512 71.926,269.425 72.011 C 269.338 72.097,268.213 72.169,266.925 72.172 C 265.130 72.176,264.508 72.234,264.260 72.422 C 264.082 72.557,263.726 72.667,263.468 72.667 L 263.000 72.667 263.000 91.072 L 263.000 109.478 263.375 109.605 C 264.054 109.836,275.054 109.778,275.304 109.542 C 275.436 109.416,275.999 109.331,276.720 109.328 C 277.507 109.325,278.027 109.239,278.240 109.078 C 278.418 108.943,278.718 108.831,278.907 108.828 C 279.096 108.825,279.396 108.713,279.574 108.578 C 279.751 108.443,280.183 108.333,280.532 108.333 C 280.884 108.333,281.167 108.251,281.167 108.149 C 281.167 108.035,281.419 107.989,281.833 108.029 C 282.385 108.081,282.500 108.041,282.500 107.796 C 282.500 107.633,282.604 107.500,282.732 107.500 C 282.860 107.500,283.008 107.388,283.060 107.250 C 283.113 107.112,283.328 107.000,283.538 107.000 C 283.748 107.000,284.008 106.859,284.115 106.687 C 284.311 106.374,285.596 105.667,285.969 105.667 C 286.078 105.667,286.167 105.569,286.167 105.449 C 286.167 105.180,287.193 104.167,287.466 104.167 C 287.576 104.167,287.668 104.035,287.669 103.875 C 287.670 103.715,287.970 103.261,288.335 102.868 C 288.701 102.474,289.000 102.041,289.000 101.904 C 289.000 101.768,289.112 101.613,289.250 101.560 C 289.387 101.508,289.500 101.285,289.500 101.066 C 289.500 100.846,289.558 100.667,289.629 100.667 C 289.756 100.667,289.929 100.350,290.653 98.795 C 290.855 98.362,291.090 97.964,291.176 97.911 C 291.263 97.857,291.333 97.496,291.333 97.107 C 291.333 96.718,291.406 96.328,291.494 96.239 C 291.582 96.151,291.698 95.406,291.750 94.583 C 291.803 93.760,291.918 93.015,292.007 92.927 C 292.205 92.729,292.222 87.054,292.025 86.932 C 291.947 86.884,291.833 86.188,291.771 85.385 C 291.709 84.582,291.586 83.852,291.496 83.763 C 291.407 83.673,291.333 83.315,291.333 82.967 C 291.333 82.618,291.264 82.333,291.180 82.333 C 290.966 82.333,290.333 81.273,290.333 80.913 C 290.333 80.749,290.146 80.369,289.917 80.069 C 289.688 79.768,289.500 79.451,289.500 79.365 C 289.500 79.278,289.387 79.114,289.250 79.000 C 289.112 78.886,289.000 78.652,289.000 78.480 C 289.000 78.307,288.892 78.167,288.761 78.167 C 288.629 78.167,288.311 77.868,288.052 77.504 C 287.794 77.139,287.527 76.839,287.458 76.837 C 287.291 76.832,286.667 76.201,286.667 76.036 C 286.667 75.964,286.442 75.772,286.167 75.610 C 285.892 75.447,285.667 75.244,285.667 75.157 C 285.667 75.071,285.479 75.000,285.250 75.000 C 284.991 75.000,284.833 74.906,284.833 74.750 C 284.833 74.597,284.678 74.500,284.434 74.500 C 284.215 74.500,283.992 74.387,283.940 74.250 C 283.887 74.112,283.728 74.000,283.586 74.000 C 283.327 74.000,283.208 73.953,282.195 73.445 C 281.889 73.292,281.392 73.167,281.090 73.167 C 280.788 73.167,280.447 73.054,280.333 72.917 C 280.219 72.779,279.943 72.667,279.719 72.667 C 279.495 72.667,279.148 72.573,278.947 72.458 C 278.747 72.344,277.758 72.195,276.750 72.127 C 272.080 71.814,270.870 71.754,270.250 71.803 M273.386 73.533 C 273.623 73.663,274.392 73.716,275.595 73.685 C 276.989 73.649,277.596 73.702,278.074 73.902 C 278.422 74.048,278.848 74.167,279.019 74.167 C 279.190 74.167,279.420 74.310,279.529 74.485 C 279.684 74.733,279.853 74.782,280.301 74.709 C 280.730 74.640,280.914 74.686,281.029 74.891 C 281.116 75.046,281.390 75.167,281.655 75.167 C 281.914 75.167,282.219 75.279,282.333 75.417 C 282.447 75.554,282.618 75.667,282.713 75.667 C 282.808 75.667,283.131 75.854,283.431 76.083 C 283.732 76.313,284.133 76.500,284.322 76.500 C 284.512 76.500,284.667 76.575,284.667 76.667 C 284.667 76.844,285.267 77.500,285.429 77.500 C 285.601 77.500,286.500 78.469,286.500 78.654 C 286.500 78.753,286.612 78.833,286.750 78.833 C 286.887 78.833,287.000 78.938,287.000 79.066 C 287.000 79.193,287.112 79.341,287.250 79.394 C 287.387 79.446,287.500 79.608,287.500 79.753 C 287.500 79.897,287.688 80.190,287.917 80.402 C 288.146 80.614,288.333 80.939,288.333 81.124 C 288.333 81.308,288.446 81.553,288.583 81.667 C 288.721 81.781,288.833 82.119,288.833 82.419 C 288.833 82.750,288.932 83.002,289.083 83.060 C 289.221 83.113,289.333 83.314,289.333 83.507 C 289.333 83.699,289.446 83.970,289.583 84.107 C 289.756 84.280,289.833 84.704,289.833 85.479 C 289.833 86.095,289.915 86.682,290.015 86.782 C 290.248 87.015,290.231 93.169,289.997 93.403 C 289.907 93.493,289.833 94.117,289.833 94.789 C 289.833 95.721,289.774 96.033,289.583 96.106 C 289.444 96.160,289.333 96.408,289.333 96.667 C 289.333 96.922,289.229 97.171,289.102 97.220 C 288.975 97.269,288.833 97.595,288.788 97.946 C 288.667 98.873,288.255 99.859,287.852 100.185 C 287.658 100.342,287.500 100.629,287.500 100.824 C 287.500 101.018,287.387 101.220,287.250 101.273 C 287.112 101.326,287.000 101.513,287.000 101.690 C 287.000 101.866,286.887 102.054,286.750 102.106 C 286.612 102.159,286.500 102.272,286.500 102.357 C 286.500 102.555,285.020 104.000,284.818 104.000 C 284.735 104.000,284.667 104.112,284.667 104.250 C 284.667 104.388,284.554 104.500,284.417 104.500 C 284.279 104.500,284.167 104.574,284.167 104.663 C 284.167 104.753,283.985 104.873,283.762 104.929 C 283.540 104.984,283.317 105.136,283.267 105.265 C 283.218 105.394,283.017 105.500,282.821 105.500 C 282.625 105.500,282.319 105.685,282.142 105.910 C 281.963 106.138,281.561 106.369,281.241 106.429 C 280.923 106.489,280.622 106.604,280.572 106.686 C 280.521 106.767,280.274 106.833,280.022 106.833 C 279.770 106.833,279.418 106.943,279.240 107.078 C 279.062 107.213,278.754 107.325,278.556 107.328 C 278.357 107.331,278.163 107.427,278.125 107.542 C 278.076 107.688,277.610 107.750,276.569 107.749 C 275.477 107.748,275.034 107.811,274.897 107.987 C 274.589 108.383,266.631 108.337,266.188 107.936 C 266.011 107.776,265.765 107.658,265.641 107.675 C 265.518 107.692,265.323 107.697,265.208 107.686 C 265.043 107.671,265.000 104.217,265.000 91.026 C 265.000 71.378,264.593 73.785,267.928 73.704 C 269.157 73.674,270.483 73.587,270.873 73.510 C 271.939 73.300,272.978 73.309,273.386 73.533 M199.426 82.589 C 199.249 82.723,198.864 82.833,198.572 82.833 C 198.280 82.833,197.947 82.946,197.833 83.083 C 197.719 83.221,197.354 83.336,197.021 83.339 C 196.689 83.342,196.271 83.454,196.093 83.589 C 195.915 83.723,195.633 83.833,195.467 83.833 C 194.917 83.833,194.141 84.665,194.425 84.949 C 194.558 85.082,194.667 85.490,194.667 85.857 C 194.667 86.532,195.146 87.311,195.292 86.874 C 195.330 86.760,195.571 86.667,195.827 86.667 C 196.083 86.667,196.386 86.554,196.500 86.417 C 196.614 86.279,196.911 86.167,197.159 86.167 C 197.408 86.167,197.665 86.113,197.730 86.048 C 198.923 84.854,206.138 85.206,206.163 86.458 C 206.165 86.573,206.340 86.667,206.551 86.667 C 206.841 86.667,207.010 86.834,207.235 87.345 C 207.400 87.718,207.639 88.064,207.767 88.113 C 207.895 88.162,208.000 88.335,208.000 88.497 C 208.000 88.660,208.112 88.886,208.250 89.000 C 208.571 89.266,208.613 92.487,208.300 92.800 C 208.165 92.935,207.389 93.000,205.902 93.000 C 204.277 93.000,203.580 93.065,203.227 93.249 C 202.941 93.398,202.282 93.500,201.583 93.504 C 200.824 93.508,200.304 93.596,200.093 93.755 C 199.915 93.890,199.521 94.000,199.218 94.000 C 198.915 94.000,198.667 94.075,198.667 94.167 C 198.667 94.258,198.525 94.333,198.351 94.333 C 198.178 94.333,197.992 94.446,197.940 94.583 C 197.887 94.721,197.698 94.833,197.519 94.833 C 197.094 94.833,196.183 95.318,195.718 95.792 C 195.515 95.998,195.256 96.167,195.143 96.167 C 194.877 96.167,193.667 97.460,193.667 97.744 C 193.667 97.862,193.554 98.053,193.417 98.167 C 193.279 98.281,193.167 98.515,193.167 98.687 C 193.167 98.859,193.092 99.000,193.000 99.000 C 192.908 99.000,192.833 99.141,192.833 99.313 C 192.833 99.485,192.721 99.719,192.583 99.833 C 192.288 100.079,192.204 105.167,192.496 105.167 C 192.660 105.167,193.333 106.499,193.333 106.824 C 193.333 106.921,193.408 107.000,193.500 107.000 C 193.592 107.000,193.667 107.112,193.667 107.250 C 193.667 107.388,193.724 107.500,193.795 107.500 C 193.865 107.500,194.271 107.819,194.696 108.208 C 195.854 109.269,195.951 109.333,196.396 109.333 C 196.621 109.333,196.836 109.424,196.873 109.536 C 196.912 109.653,197.306 109.752,197.816 109.773 C 198.974 109.819,199.225 109.927,199.118 110.335 C 199.037 110.644,199.116 110.667,200.286 110.667 C 201.409 110.667,201.518 110.639,201.323 110.404 C 201.142 110.186,201.146 110.115,201.344 109.990 C 201.559 109.854,201.843 109.816,203.124 109.753 C 203.330 109.743,203.589 109.645,203.699 109.534 C 203.810 109.424,204.098 109.333,204.339 109.333 C 204.605 109.333,204.969 109.139,205.264 108.838 C 205.531 108.566,205.854 108.341,205.982 108.338 C 206.110 108.335,206.723 107.808,207.344 107.167 C 208.699 105.768,209.000 105.754,209.000 107.087 C 209.000 107.574,209.074 107.997,209.165 108.028 C 209.256 108.058,209.352 108.346,209.378 108.667 L 209.425 109.250 211.379 109.297 C 213.389 109.345,213.495 109.312,213.078 108.760 C 212.870 108.484,212.833 107.068,212.833 99.239 C 212.833 91.266,212.800 90.013,212.583 89.833 C 212.446 89.719,212.333 89.370,212.333 89.058 C 212.333 88.706,212.238 88.453,212.083 88.394 C 211.932 88.335,211.833 88.083,211.833 87.753 C 211.833 87.453,211.721 87.114,211.583 87.000 C 211.446 86.886,211.333 86.682,211.333 86.548 C 211.333 86.413,211.071 85.996,210.750 85.621 C 210.429 85.247,210.167 84.879,210.167 84.803 C 210.167 84.728,210.082 84.667,209.977 84.667 C 209.873 84.667,209.625 84.491,209.426 84.276 C 209.227 84.061,208.862 83.835,208.616 83.773 C 208.369 83.711,208.167 83.587,208.167 83.497 C 208.167 83.407,207.951 83.333,207.687 83.333 C 207.423 83.333,207.114 83.221,207.000 83.083 C 206.886 82.946,206.633 82.831,206.438 82.828 C 206.243 82.825,205.938 82.713,205.760 82.578 C 205.290 82.223,199.899 82.232,199.426 82.589 M307.667 82.597 C 307.438 82.724,307.076 82.830,306.863 82.831 C 306.650 82.832,306.364 82.946,306.226 83.083 C 306.089 83.221,305.761 83.333,305.498 83.333 C 305.235 83.333,304.977 83.403,304.925 83.487 C 304.872 83.572,304.616 83.688,304.354 83.745 C 304.093 83.803,303.719 84.034,303.524 84.258 C 303.329 84.483,303.082 84.667,302.976 84.667 C 302.770 84.667,300.833 86.662,300.833 86.874 C 300.833 86.943,300.739 87.000,300.624 87.000 C 300.509 87.000,300.308 87.244,300.178 87.542 C 299.912 88.149,299.316 89.054,299.125 89.139 C 299.056 89.169,299.000 89.436,299.000 89.731 C 299.000 90.025,298.925 90.342,298.833 90.434 C 298.741 90.525,298.621 90.934,298.567 91.342 C 298.512 91.750,298.399 92.155,298.317 92.242 C 298.234 92.329,298.167 92.596,298.167 92.835 C 298.167 93.074,298.057 93.415,297.922 93.593 C 297.559 94.073,297.555 99.366,297.917 99.667 C 298.054 99.781,298.167 100.121,298.167 100.423 C 298.167 100.725,298.237 100.997,298.323 101.028 C 298.409 101.058,298.524 101.458,298.578 101.917 C 298.632 102.375,298.749 102.775,298.838 102.806 C 298.927 102.836,299.000 103.038,299.000 103.255 C 299.000 103.472,299.171 103.833,299.379 104.058 C 299.587 104.283,299.924 104.800,300.127 105.206 C 300.330 105.612,300.684 106.030,300.915 106.135 C 301.161 106.248,301.333 106.465,301.333 106.663 C 301.333 106.861,301.444 107.000,301.600 107.000 C 301.746 107.000,302.075 107.206,302.330 107.458 C 303.025 108.146,303.292 108.333,303.582 108.333 C 303.726 108.333,303.887 108.446,303.940 108.583 C 303.992 108.721,304.168 108.833,304.331 108.833 C 304.493 108.833,304.719 108.946,304.833 109.083 C 304.947 109.221,305.279 109.333,305.570 109.333 C 305.862 109.333,306.190 109.423,306.299 109.533 C 306.525 109.759,307.270 109.804,310.583 109.796 C 314.317 109.786,314.809 109.758,315.027 109.540 C 315.141 109.426,315.547 109.333,315.930 109.333 C 316.345 109.333,316.709 109.233,316.833 109.083 C 316.947 108.946,317.154 108.833,317.293 108.833 C 317.893 108.833,318.159 108.207,317.859 107.500 C 317.708 107.142,317.558 106.921,317.527 107.010 C 317.435 107.274,316.059 107.833,315.503 107.833 C 315.220 107.833,314.822 107.935,314.619 108.060 C 314.336 108.233,313.978 108.253,313.083 108.142 C 310.527 107.826,309.824 107.797,309.368 107.986 C 308.760 108.238,307.360 108.260,307.121 108.021 C 307.018 107.918,306.695 107.833,306.404 107.833 C 306.112 107.833,305.781 107.721,305.667 107.583 C 305.553 107.446,305.388 107.333,305.302 107.333 C 305.215 107.333,304.906 107.155,304.614 106.936 C 304.322 106.717,303.915 106.487,303.708 106.425 C 303.502 106.362,303.333 106.242,303.333 106.157 C 303.333 106.073,303.033 105.722,302.667 105.377 C 302.300 105.032,302.000 104.622,302.000 104.467 C 302.000 104.311,301.906 104.123,301.792 104.050 C 301.561 103.902,301.248 103.438,301.010 102.891 C 300.924 102.694,300.774 102.483,300.677 102.423 C 300.580 102.363,300.500 102.060,300.500 101.750 C 300.500 101.440,300.425 101.140,300.333 101.083 C 300.242 101.027,300.167 100.774,300.167 100.522 C 300.167 100.270,300.057 99.918,299.922 99.740 C 299.599 99.313,299.559 95.923,299.875 95.718 C 299.990 95.644,304.471 95.546,309.833 95.500 L 319.583 95.417 319.523 92.917 C 319.478 91.095,319.399 90.345,319.231 90.154 C 319.104 90.009,318.998 89.784,318.995 89.654 C 318.992 89.523,318.879 89.271,318.745 89.093 C 318.610 88.915,318.500 88.659,318.500 88.524 C 318.500 88.174,317.962 87.000,317.801 87.000 C 317.727 87.000,317.667 86.896,317.667 86.768 C 317.667 86.640,317.554 86.492,317.417 86.440 C 317.279 86.387,317.167 86.234,317.167 86.100 C 317.167 85.849,316.139 84.667,315.921 84.667 C 315.771 84.667,314.439 83.636,314.361 83.460 C 314.331 83.390,314.058 83.333,313.757 83.333 C 313.455 83.333,313.114 83.221,313.000 83.083 C 312.886 82.946,312.554 82.833,312.261 82.833 C 311.969 82.833,311.585 82.723,311.407 82.589 C 310.975 82.262,308.260 82.268,307.667 82.597 M332.426 82.589 C 332.249 82.723,331.864 82.833,331.572 82.833 C 331.280 82.833,330.947 82.946,330.833 83.083 C 330.719 83.221,330.416 83.333,330.160 83.333 C 329.847 83.333,329.460 83.552,328.980 84.000 C 328.586 84.367,328.169 84.667,328.052 84.667 C 327.935 84.667,327.794 84.849,327.738 85.071 C 327.682 85.294,327.456 85.612,327.235 85.778 C 327.014 85.943,326.833 86.234,326.833 86.424 C 326.833 86.614,326.723 86.915,326.589 87.093 C 326.454 87.271,326.342 87.580,326.339 87.780 C 326.336 87.979,326.207 88.269,326.053 88.423 C 325.709 88.768,325.734 90.091,326.092 90.449 C 326.225 90.582,326.333 90.831,326.333 91.002 C 326.333 91.173,326.399 91.354,326.478 91.403 C 326.558 91.453,326.671 91.730,326.729 92.019 C 326.787 92.309,327.021 92.719,327.250 92.932 C 327.479 93.144,327.668 93.377,327.669 93.450 C 327.671 93.524,328.196 93.951,328.836 94.401 C 329.476 94.850,330.000 95.281,330.000 95.359 C 330.000 95.437,330.146 95.500,330.323 95.500 C 330.501 95.500,330.693 95.575,330.750 95.667 C 330.807 95.758,331.068 95.833,331.331 95.833 C 331.594 95.833,331.922 95.946,332.060 96.083 C 332.197 96.221,332.381 96.333,332.468 96.333 C 332.555 96.333,332.719 96.446,332.833 96.583 C 332.947 96.721,333.259 96.833,333.526 96.833 C 333.803 96.833,334.052 96.940,334.106 97.083 C 334.159 97.221,334.301 97.333,334.421 97.333 C 334.541 97.333,334.664 97.390,334.694 97.458 C 334.763 97.613,335.801 98.167,336.021 98.167 C 336.196 98.167,337.833 99.751,337.833 99.921 C 337.833 99.977,337.946 100.136,338.083 100.274 C 338.221 100.411,338.333 100.739,338.333 101.002 C 338.333 101.265,338.408 101.527,338.500 101.583 C 338.592 101.640,338.667 102.282,338.667 103.010 C 338.667 103.781,338.597 104.333,338.500 104.333 C 338.408 104.333,338.333 104.549,338.333 104.813 C 338.333 105.077,338.221 105.386,338.083 105.500 C 337.946 105.614,337.833 105.811,337.833 105.937 C 337.833 106.148,337.266 106.833,337.092 106.833 C 337.051 106.833,336.813 107.023,336.563 107.254 C 336.314 107.485,335.916 107.721,335.680 107.777 C 335.443 107.833,335.153 107.956,335.034 108.050 C 334.763 108.264,333.665 108.232,333.437 108.004 C 333.214 107.781,330.951 107.782,330.728 108.006 C 330.502 108.231,329.061 108.257,328.793 108.040 C 328.677 107.948,328.327 107.817,328.013 107.750 C 327.700 107.683,327.251 107.449,327.015 107.231 C 326.460 106.715,325.833 106.697,325.833 107.195 C 325.833 107.394,325.715 107.688,325.570 107.848 C 325.280 108.168,325.725 108.833,326.230 108.833 C 326.356 108.833,326.553 108.946,326.667 109.083 C 326.781 109.221,327.075 109.333,327.320 109.333 C 327.566 109.333,327.859 109.425,327.971 109.538 C 328.094 109.660,328.757 109.759,329.629 109.784 C 331.625 109.841,332.530 110.191,331.625 110.556 C 331.510 110.603,331.578 110.646,331.776 110.654 C 332.055 110.664,332.116 110.593,332.049 110.335 C 331.937 109.909,332.113 109.854,333.800 109.778 C 334.561 109.744,335.270 109.630,335.375 109.525 C 335.481 109.419,335.737 109.333,335.945 109.333 C 336.596 109.333,339.333 107.193,339.333 106.683 C 339.333 106.598,339.416 106.500,339.518 106.466 C 340.180 106.246,340.648 100.922,340.081 100.057 C 339.945 99.849,339.833 99.561,339.833 99.418 C 339.833 99.077,336.976 96.222,336.634 96.222 C 336.256 96.222,335.167 95.680,335.167 95.492 C 335.167 95.405,334.988 95.333,334.770 95.333 C 334.552 95.333,334.281 95.221,334.167 95.083 C 334.053 94.946,333.748 94.833,333.489 94.833 C 333.231 94.833,332.976 94.763,332.923 94.677 C 332.801 94.480,331.849 94.000,331.578 94.000 C 331.466 94.000,331.281 93.888,331.167 93.750 C 331.053 93.612,330.834 93.500,330.680 93.500 C 330.527 93.500,330.217 93.278,329.992 93.007 C 329.767 92.736,329.508 92.511,329.415 92.507 C 329.242 92.500,328.975 92.137,328.476 91.230 C 327.746 89.905,328.307 86.369,329.359 85.667 C 329.565 85.529,329.971 85.173,330.261 84.875 C 330.685 84.440,330.922 84.333,331.464 84.333 C 331.856 84.333,332.168 84.246,332.208 84.125 C 332.301 83.846,335.088 83.854,335.368 84.135 C 335.477 84.244,335.935 84.333,336.384 84.333 C 337.041 84.333,337.326 84.432,337.833 84.833 C 338.599 85.440,339.304 85.227,339.328 84.383 C 339.331 84.273,339.465 84.107,339.625 84.013 C 339.887 83.860,339.880 83.843,339.554 83.838 C 339.354 83.836,339.078 83.721,338.940 83.583 C 338.803 83.446,338.458 83.333,338.173 83.333 C 337.867 83.333,337.617 83.231,337.560 83.083 C 337.501 82.928,337.247 82.833,336.893 82.833 C 336.580 82.833,336.053 82.721,335.724 82.583 C 334.937 82.254,332.864 82.258,332.426 82.589 M218.172 83.042 C 218.175 83.156,218.287 83.396,218.422 83.574 C 218.557 83.751,218.667 84.174,218.667 84.513 C 218.667 84.851,218.779 85.343,218.916 85.606 C 219.053 85.869,219.165 86.327,219.166 86.625 C 219.166 86.923,219.242 87.167,219.333 87.167 C 219.425 87.167,219.500 87.311,219.500 87.488 C 219.500 87.665,219.612 87.922,219.750 88.060 C 219.897 88.207,220.000 88.614,220.000 89.051 C 220.000 89.507,220.096 89.872,220.250 90.000 C 220.387 90.114,220.500 90.377,220.500 90.583 C 220.500 90.790,220.612 91.053,220.750 91.167 C 220.896 91.288,221.002 91.660,221.005 92.062 C 221.008 92.440,221.121 92.896,221.255 93.074 C 221.390 93.251,221.500 93.683,221.500 94.032 C 221.500 94.381,221.575 94.667,221.667 94.667 C 221.758 94.667,221.833 94.845,221.833 95.063 C 221.833 95.281,221.946 95.553,222.083 95.667 C 222.238 95.795,222.335 96.169,222.339 96.645 C 222.342 97.070,222.454 97.562,222.589 97.740 C 222.723 97.918,222.833 98.340,222.833 98.678 C 222.833 99.021,222.944 99.384,223.083 99.500 C 223.221 99.614,223.333 99.871,223.333 100.070 C 223.333 100.270,223.406 100.506,223.495 100.595 C 223.584 100.684,223.702 101.055,223.759 101.420 C 223.815 101.785,223.930 102.155,224.014 102.242 C 224.098 102.329,224.167 102.713,224.167 103.096 C 224.167 103.512,224.267 103.876,224.417 104.000 C 224.554 104.114,224.669 104.367,224.672 104.562 C 224.675 104.757,224.787 105.062,224.922 105.240 C 225.057 105.418,225.167 105.763,225.167 106.006 C 225.167 106.404,225.402 107.053,225.844 107.873 C 225.930 108.032,226.000 108.426,226.000 108.748 L 226.000 109.333 228.167 109.333 L 230.333 109.333 230.333 108.854 C 230.333 108.590,230.446 108.281,230.583 108.167 C 230.721 108.053,230.833 107.701,230.833 107.384 C 230.833 107.068,230.946 106.697,231.083 106.560 C 231.221 106.422,231.333 106.165,231.333 105.988 C 231.333 105.811,231.408 105.667,231.500 105.667 C 231.592 105.667,231.667 105.410,231.667 105.095 C 231.667 104.781,231.779 104.411,231.917 104.274 C 232.054 104.136,232.167 103.786,232.167 103.496 C 232.167 103.206,232.290 102.732,232.440 102.442 C 232.963 101.438,233.000 101.335,233.000 100.867 C 233.000 100.609,233.110 100.251,233.245 100.074 C 233.379 99.896,233.492 99.533,233.495 99.268 C 233.498 99.004,233.725 98.421,234.000 97.974 C 234.329 97.440,234.500 96.941,234.500 96.518 C 234.500 96.149,234.607 95.786,234.750 95.667 C 234.887 95.553,235.000 95.287,235.000 95.077 C 235.000 94.867,235.081 94.667,235.180 94.634 C 235.279 94.601,235.400 94.276,235.448 93.912 C 235.497 93.548,235.594 93.212,235.664 93.167 C 235.733 93.121,235.825 92.600,235.866 92.010 C 235.910 91.399,236.027 90.908,236.138 90.871 C 236.245 90.835,236.333 90.547,236.333 90.231 C 236.333 89.874,236.428 89.620,236.583 89.560 C 236.759 89.493,236.833 89.219,236.833 88.644 C 236.833 87.705,237.141 87.441,237.673 87.922 C 237.931 88.156,238.000 88.437,238.000 89.258 C 238.000 90.028,238.065 90.323,238.250 90.394 C 238.387 90.446,238.502 90.661,238.505 90.870 C 238.508 91.079,238.621 91.396,238.755 91.574 C 238.890 91.751,239.002 92.239,239.005 92.657 C 239.008 93.075,239.121 93.562,239.255 93.740 C 239.390 93.918,239.500 94.313,239.500 94.619 C 239.500 94.924,239.688 95.470,239.917 95.833 C 240.198 96.279,240.333 96.732,240.333 97.226 C 240.333 97.674,240.430 98.040,240.583 98.167 C 240.721 98.281,240.833 98.544,240.833 98.753 C 240.833 98.961,240.946 99.174,241.083 99.227 C 241.247 99.290,241.333 99.550,241.333 99.985 C 241.333 100.349,241.400 100.688,241.481 100.738 C 241.562 100.788,241.679 101.166,241.740 101.577 C 241.802 101.989,241.923 102.369,242.010 102.423 C 242.096 102.476,242.167 102.671,242.167 102.855 C 242.167 103.040,242.279 103.303,242.417 103.440 C 242.562 103.586,242.667 103.993,242.667 104.411 C 242.667 104.897,242.748 105.162,242.917 105.227 C 243.080 105.290,243.167 105.549,243.167 105.974 C 243.167 106.350,243.272 106.714,243.417 106.833 C 243.554 106.947,243.667 107.257,243.667 107.520 C 243.667 107.784,243.742 108.000,243.833 108.000 C 243.925 108.000,244.000 108.292,244.000 108.650 C 244.000 109.410,244.208 109.461,246.875 109.363 C 248.150 109.316,248.333 109.271,248.333 109.008 C 248.333 108.843,248.446 108.614,248.583 108.500 C 248.726 108.381,248.833 108.018,248.833 107.652 C 248.833 107.040,249.278 105.812,249.542 105.694 C 249.610 105.664,249.667 105.397,249.667 105.101 C 249.667 104.806,249.777 104.418,249.911 104.240 C 250.046 104.062,250.158 103.795,250.161 103.645 C 250.164 103.496,250.279 103.281,250.417 103.167 C 250.566 103.043,250.667 102.678,250.667 102.261 C 250.667 101.878,250.777 101.418,250.911 101.240 C 251.046 101.062,251.158 100.643,251.161 100.309 C 251.165 99.927,251.259 99.667,251.417 99.606 C 251.554 99.554,251.667 99.363,251.667 99.182 C 251.667 99.001,251.742 98.807,251.833 98.750 C 251.925 98.693,252.000 98.366,252.000 98.022 C 252.000 97.678,252.110 97.251,252.245 97.074 C 252.379 96.896,252.492 96.499,252.495 96.192 C 252.499 95.694,252.781 95.001,253.241 94.358 C 253.329 94.235,253.417 93.831,253.436 93.461 C 253.455 93.091,253.541 92.742,253.628 92.686 C 253.714 92.629,253.826 92.211,253.876 91.755 C 253.926 91.300,254.050 90.900,254.150 90.867 C 254.251 90.833,254.333 90.632,254.333 90.421 C 254.333 90.209,254.446 89.992,254.583 89.940 C 254.753 89.875,254.833 89.608,254.833 89.109 C 254.833 88.659,254.930 88.294,255.083 88.167 C 255.221 88.053,255.333 87.823,255.333 87.656 C 255.333 87.489,255.408 87.307,255.500 87.250 C 255.592 87.193,255.667 86.894,255.667 86.585 C 255.667 86.277,255.779 85.911,255.917 85.774 C 256.054 85.636,256.167 85.275,256.168 84.970 C 256.168 84.666,256.281 84.202,256.418 83.939 C 256.555 83.677,256.667 83.364,256.667 83.245 C 256.667 83.125,256.760 82.990,256.875 82.944 C 256.990 82.897,256.127 82.854,254.958 82.846 C 253.258 82.836,252.833 82.879,252.833 83.063 C 252.833 83.189,252.721 83.386,252.583 83.500 C 252.446 83.614,252.333 83.917,252.333 84.173 C 252.333 84.429,252.252 84.666,252.152 84.699 C 252.052 84.733,251.935 85.170,251.891 85.672 C 251.848 86.173,251.742 86.655,251.656 86.742 C 251.570 86.829,251.500 87.176,251.500 87.513 C 251.500 87.854,251.389 88.218,251.250 88.333 C 251.112 88.447,251.000 88.747,251.000 89.000 C 251.000 89.253,250.887 89.553,250.750 89.667 C 250.608 89.784,250.500 90.148,250.500 90.507 C 250.500 90.855,250.375 91.389,250.222 91.695 C 250.069 92.000,249.881 92.380,249.805 92.539 C 249.729 92.699,249.666 93.074,249.666 93.373 C 249.665 93.672,249.553 94.131,249.416 94.394 C 249.279 94.657,249.167 95.149,249.167 95.487 C 249.167 95.826,249.057 96.249,248.922 96.426 C 248.787 96.604,248.675 96.915,248.672 97.117 C 248.669 97.318,248.562 97.543,248.433 97.617 C 248.298 97.694,248.164 98.133,248.114 98.667 C 247.985 100.043,247.679 101.713,247.496 102.039 C 247.406 102.199,247.333 102.546,247.333 102.811 C 247.333 103.076,247.225 103.383,247.092 103.493 C 246.959 103.603,246.828 104.043,246.800 104.470 C 246.700 106.014,245.500 104.905,245.500 103.269 C 245.500 102.949,245.425 102.640,245.333 102.583 C 245.242 102.527,245.167 102.269,245.167 102.011 C 245.167 101.752,245.054 101.447,244.917 101.333 C 244.751 101.196,244.667 100.823,244.667 100.230 C 244.667 99.737,244.606 99.333,244.531 99.333 C 244.312 99.333,243.667 97.708,243.667 97.157 C 243.667 96.878,243.548 96.421,243.403 96.140 C 243.258 95.860,243.183 95.459,243.235 95.249 C 243.298 94.998,243.246 94.836,243.082 94.773 C 242.945 94.720,242.833 94.496,242.833 94.276 C 242.833 94.055,242.721 93.781,242.583 93.667 C 242.442 93.549,242.333 93.186,242.333 92.832 C 242.333 92.487,242.221 91.990,242.084 91.727 C 241.947 91.465,241.835 91.011,241.834 90.718 C 241.834 90.426,241.758 90.140,241.667 90.083 C 241.575 90.027,241.500 89.844,241.500 89.677 C 241.500 89.511,241.387 89.281,241.250 89.167 C 241.099 89.042,241.000 88.677,241.000 88.250 C 241.000 87.823,240.901 87.458,240.750 87.333 C 240.599 87.208,240.500 86.844,240.500 86.417 C 240.500 85.990,240.401 85.625,240.250 85.500 C 240.112 85.386,239.998 85.170,239.995 85.021 C 239.992 84.872,239.879 84.604,239.745 84.426 C 239.610 84.249,239.500 83.907,239.500 83.668 C 239.500 82.946,239.230 82.833,237.504 82.833 C 235.661 82.833,235.449 82.962,235.286 84.177 C 235.232 84.580,235.108 84.936,235.011 84.969 C 234.913 85.001,234.833 85.249,234.833 85.519 C 234.833 85.802,234.727 86.051,234.583 86.106 C 234.416 86.171,234.333 86.434,234.333 86.901 C 234.333 87.286,234.261 87.673,234.172 87.761 C 234.083 87.850,233.967 88.221,233.914 88.586 C 233.816 89.262,233.352 90.371,233.125 90.472 C 233.056 90.503,233.000 90.807,233.000 91.149 C 233.000 91.490,232.890 91.915,232.755 92.093 C 232.621 92.271,232.508 92.689,232.505 93.021 C 232.502 93.354,232.387 93.719,232.250 93.833 C 232.112 93.947,232.000 94.213,232.000 94.423 C 232.000 94.633,231.918 94.833,231.817 94.867 C 231.716 94.900,231.594 95.283,231.545 95.718 C 231.496 96.152,231.391 96.548,231.311 96.597 C 231.232 96.646,231.167 97.014,231.167 97.415 C 231.167 97.840,231.063 98.247,230.917 98.393 C 230.779 98.530,230.667 98.789,230.667 98.968 C 230.667 99.146,230.554 99.386,230.417 99.500 C 230.273 99.619,230.167 99.983,230.167 100.356 C 230.167 100.713,230.095 101.135,230.008 101.294 C 229.622 101.999,229.358 102.811,229.264 103.583 C 229.208 104.042,229.088 104.442,228.998 104.472 C 228.907 104.503,228.833 104.662,228.833 104.827 C 228.833 104.991,228.726 105.215,228.595 105.324 C 228.314 105.557,228.004 105.115,227.995 104.469 C 227.992 104.257,227.879 103.938,227.745 103.760 C 227.610 103.582,227.499 103.282,227.497 103.093 C 227.496 102.904,227.395 102.464,227.273 102.114 C 227.151 101.763,227.069 101.139,227.090 100.726 C 227.117 100.211,227.056 99.947,226.898 99.886 C 226.741 99.826,226.667 99.515,226.667 98.919 C 226.667 98.342,226.581 97.970,226.417 97.833 C 226.279 97.719,226.167 97.379,226.167 97.077 C 226.167 96.775,226.080 96.499,225.975 96.464 C 225.869 96.429,225.748 95.954,225.704 95.408 C 225.661 94.863,225.557 94.330,225.473 94.225 C 225.388 94.119,225.299 93.687,225.275 93.265 C 225.250 92.842,225.141 92.408,225.032 92.298 C 224.923 92.189,224.833 91.979,224.833 91.832 C 224.833 91.684,224.723 91.418,224.589 91.240 C 224.454 91.062,224.342 90.575,224.339 90.157 C 224.336 89.739,224.223 89.251,224.089 89.074 C 223.954 88.896,223.839 88.600,223.833 88.417 C 223.828 88.233,223.713 87.938,223.578 87.760 C 223.443 87.581,223.333 87.083,223.333 86.645 C 223.333 86.209,223.258 85.807,223.167 85.750 C 223.075 85.693,223.000 85.286,223.000 84.844 C 223.000 84.333,222.909 83.965,222.750 83.833 C 222.612 83.719,222.500 83.448,222.500 83.230 L 222.500 82.833 220.333 82.833 C 218.708 82.833,218.168 82.885,218.172 83.042 M311.023 84.179 C 311.181 84.264,311.619 84.333,311.994 84.333 C 312.428 84.333,312.710 84.419,312.767 84.568 C 312.817 84.698,313.040 84.849,313.262 84.905 C 313.485 84.961,313.667 85.080,313.667 85.170 C 313.667 85.260,313.753 85.333,313.859 85.333 C 313.965 85.333,314.337 85.633,314.686 86.000 C 315.035 86.367,315.398 86.667,315.493 86.667 C 315.589 86.667,315.667 86.820,315.667 87.008 C 315.667 87.196,315.855 87.514,316.085 87.716 C 316.315 87.918,316.519 88.288,316.538 88.538 C 316.557 88.788,316.668 89.029,316.786 89.074 C 316.904 89.119,317.000 89.262,317.000 89.391 C 317.000 89.520,317.115 89.721,317.255 89.837 C 317.464 90.011,317.501 90.428,317.463 92.149 L 317.417 94.250 308.867 94.293 C 299.134 94.342,299.111 94.339,299.864 92.947 C 299.972 92.747,300.081 92.404,300.105 92.184 C 300.129 91.964,300.228 91.705,300.325 91.609 C 300.421 91.512,300.500 91.158,300.500 90.823 C 300.500 90.382,300.638 90.055,300.997 89.648 C 301.271 89.337,301.497 88.933,301.500 88.750 C 301.509 88.174,303.948 85.581,304.969 85.062 C 305.307 84.891,305.633 84.681,305.694 84.597 C 305.755 84.513,306.167 84.385,306.610 84.313 C 307.054 84.241,307.717 84.109,308.083 84.019 C 308.815 83.839,310.566 83.934,311.023 84.179 M208.395 99.250 L 208.453 102.917 207.977 103.524 C 207.714 103.858,207.500 104.183,207.500 104.245 C 207.500 104.423,206.047 105.833,205.864 105.833 C 205.775 105.833,205.662 105.939,205.612 106.068 C 205.563 106.196,205.274 106.355,204.970 106.420 C 204.665 106.485,204.329 106.609,204.223 106.694 C 203.860 106.986,199.132 106.897,198.964 106.596 C 198.883 106.451,198.682 106.333,198.517 106.333 C 198.352 106.333,198.037 106.095,197.817 105.804 C 197.597 105.512,197.237 105.057,197.016 104.791 C 196.370 104.012,196.400 100.035,197.057 99.427 C 197.300 99.201,197.500 98.923,197.500 98.810 C 197.500 98.546,198.167 97.833,198.415 97.833 C 198.519 97.833,198.820 97.608,199.083 97.333 C 199.347 97.058,199.728 96.833,199.930 96.833 C 200.132 96.833,200.341 96.721,200.394 96.583 C 200.446 96.446,200.661 96.331,200.870 96.328 C 201.079 96.325,201.396 96.213,201.574 96.078 C 201.768 95.931,202.301 95.827,202.907 95.817 C 203.462 95.808,204.104 95.739,204.333 95.664 C 204.563 95.589,205.557 95.540,206.543 95.556 L 208.336 95.583 208.395 99.250 "
        ></path>
    </g>
</svg>
