<svg xmlns="http://www.w3.org/2000/svg" viewBox="0, 0, 400,79.4682422451994">
    <g id="svgg">
        <path
            fill="#cc0033"
            d="M186.042 0.115 C 186.202 0.157,186.465 0.157,186.625 0.115 C 186.785 0.073,186.654 0.039,186.333 0.039 C 186.012 0.039,185.881 0.073,186.042 0.115 M-0.000 1.021 C -0.000 1.355,0.112 1.719,0.250 1.833 C 0.388 1.947,0.500 2.139,0.500 2.259 C 0.500 2.378,0.594 2.575,0.708 2.696 C 0.823 2.818,1.029 3.142,1.167 3.417 C 1.304 3.692,1.553 4.067,1.720 4.250 C 1.886 4.433,2.065 4.790,2.116 5.042 C 2.167 5.294,2.274 5.500,2.354 5.500 C 2.434 5.500,2.500 5.612,2.500 5.750 C 2.500 5.888,2.556 6.001,2.625 6.002 C 2.694 6.003,2.899 6.322,3.081 6.710 C 3.263 7.099,3.450 7.454,3.498 7.500 C 3.545 7.546,3.696 7.808,3.833 8.083 C 3.971 8.358,4.126 8.621,4.180 8.667 C 4.233 8.712,4.494 9.162,4.761 9.667 C 5.028 10.171,5.378 10.705,5.540 10.853 C 5.701 11.001,5.836 11.226,5.840 11.353 C 5.844 11.480,6.071 11.958,6.344 12.417 C 6.617 12.875,7.004 13.569,7.204 13.958 C 7.403 14.348,7.626 14.667,7.700 14.667 C 7.773 14.667,7.833 14.760,7.834 14.875 C 7.834 14.990,8.021 15.301,8.250 15.568 C 8.479 15.834,8.667 16.190,8.667 16.359 C 8.667 16.528,8.723 16.667,8.793 16.667 C 8.862 16.667,9.026 16.910,9.157 17.208 C 9.289 17.506,9.495 17.849,9.615 17.970 C 9.735 18.091,9.833 18.298,9.833 18.429 C 9.833 18.560,9.908 18.667,10.000 18.667 C 10.092 18.667,10.167 18.817,10.167 19.000 C 10.167 19.183,10.242 19.333,10.333 19.333 C 10.425 19.333,10.500 19.446,10.500 19.583 C 10.500 19.721,10.564 19.833,10.641 19.833 C 10.719 19.833,10.923 20.152,11.095 20.542 C 11.267 20.931,11.447 21.287,11.496 21.333 C 11.544 21.379,11.690 21.623,11.820 21.875 C 11.950 22.127,12.119 22.333,12.195 22.333 C 12.271 22.333,12.333 22.416,12.333 22.516 C 12.333 22.799,12.873 23.881,13.181 24.217 C 13.333 24.382,13.596 24.832,13.765 25.217 C 13.935 25.602,14.207 26.038,14.370 26.186 C 14.533 26.334,14.667 26.541,14.667 26.645 C 14.667 26.748,14.742 26.833,14.833 26.833 C 14.925 26.833,15.000 26.978,15.000 27.155 C 15.000 27.332,15.112 27.589,15.250 27.726 C 15.387 27.864,15.500 28.094,15.500 28.238 C 15.500 28.382,15.575 28.500,15.667 28.500 C 15.758 28.500,15.833 28.613,15.833 28.750 C 15.833 28.887,15.894 29.000,15.968 29.000 C 16.042 29.000,16.242 29.319,16.411 29.708 C 16.581 30.098,16.765 30.454,16.819 30.500 C 16.967 30.626,17.271 31.153,17.780 32.167 C 18.033 32.671,18.364 33.218,18.515 33.383 C 18.666 33.548,18.927 34.017,19.096 34.425 C 19.264 34.833,19.461 35.167,19.534 35.167 C 19.607 35.167,19.667 35.240,19.667 35.329 C 19.667 35.480,21.139 37.982,21.337 38.167 C 21.386 38.212,21.566 38.569,21.738 38.958 C 21.910 39.348,22.114 39.667,22.192 39.667 C 22.270 39.667,22.333 39.747,22.333 39.845 C 22.333 39.943,22.446 40.136,22.583 40.274 C 22.721 40.411,22.833 40.668,22.833 40.845 C 22.833 41.022,22.908 41.167,23.000 41.167 C 23.092 41.167,23.167 41.279,23.167 41.417 C 23.167 41.554,23.242 41.667,23.333 41.667 C 23.425 41.667,23.500 41.817,23.500 42.000 C 23.500 42.183,23.574 42.333,23.663 42.333 C 23.753 42.333,23.874 42.521,23.932 42.750 C 23.989 42.979,24.103 43.167,24.185 43.167 C 24.266 43.167,24.333 43.317,24.333 43.500 C 24.333 43.683,24.408 43.833,24.500 43.833 C 24.592 43.833,24.667 43.946,24.667 44.083 C 24.667 44.221,24.742 44.333,24.833 44.333 C 24.925 44.333,25.000 44.446,25.000 44.583 C 25.000 44.721,25.069 44.833,25.153 44.833 C 25.238 44.833,25.356 45.058,25.417 45.333 C 25.477 45.608,25.577 45.833,25.639 45.833 C 25.701 45.833,25.858 46.077,25.988 46.375 C 26.117 46.673,26.269 46.954,26.324 47.000 C 26.516 47.159,27.000 47.989,27.000 48.159 C 27.000 48.319,27.312 48.751,27.792 49.257 C 27.906 49.377,28.000 49.577,28.000 49.699 C 28.000 49.822,28.187 50.199,28.417 50.536 C 28.646 50.873,28.833 51.228,28.833 51.324 C 28.833 51.421,28.900 51.500,28.982 51.500 C 29.064 51.500,29.178 51.688,29.235 51.917 C 29.293 52.146,29.413 52.333,29.503 52.333 C 29.593 52.333,29.667 52.483,29.667 52.667 C 29.667 52.850,29.742 53.000,29.833 53.000 C 29.925 53.000,30.000 53.112,30.000 53.250 C 30.000 53.387,30.074 53.500,30.163 53.500 C 30.253 53.500,30.374 53.687,30.432 53.917 C 30.489 54.146,30.603 54.333,30.685 54.333 C 30.766 54.333,30.833 54.477,30.833 54.653 C 30.833 54.828,30.890 54.997,30.958 55.028 C 31.116 55.098,31.631 55.941,31.882 56.542 C 31.987 56.794,32.132 57.000,32.203 57.000 C 32.275 57.000,32.333 57.150,32.333 57.333 C 32.333 57.517,32.408 57.667,32.500 57.667 C 32.592 57.667,32.667 57.779,32.667 57.917 C 32.667 58.054,32.730 58.167,32.808 58.167 C 32.886 58.167,33.089 58.504,33.259 58.917 C 33.429 59.329,33.628 59.667,33.701 59.667 C 33.774 59.667,33.833 59.765,33.833 59.885 C 33.833 60.005,33.965 60.251,34.125 60.430 C 34.285 60.610,34.642 61.186,34.917 61.711 C 35.192 62.236,35.463 62.666,35.519 62.666 C 35.575 62.666,35.750 63.004,35.908 63.417 C 36.065 63.829,36.263 64.167,36.347 64.167 C 36.431 64.167,36.500 64.279,36.500 64.417 C 36.500 64.554,36.556 64.667,36.625 64.668 C 36.694 64.669,36.898 65.007,37.079 65.418 C 37.260 65.830,37.466 66.167,37.537 66.167 C 37.608 66.167,37.667 66.317,37.667 66.500 C 37.667 66.683,37.742 66.833,37.833 66.833 C 37.925 66.833,38.000 66.946,38.000 67.083 C 38.000 67.221,38.064 67.333,38.142 67.333 C 38.219 67.333,38.422 67.671,38.592 68.083 C 38.762 68.496,38.961 68.833,39.034 68.833 C 39.107 68.833,39.167 68.937,39.167 69.063 C 39.167 69.189,39.279 69.386,39.417 69.500 C 39.554 69.614,39.667 69.848,39.667 70.020 C 39.667 70.193,39.742 70.333,39.833 70.333 C 39.925 70.333,40.000 70.446,40.000 70.583 C 40.000 70.721,40.075 70.833,40.167 70.833 C 40.258 70.833,40.333 70.956,40.333 71.105 C 40.333 71.255,40.473 71.499,40.643 71.647 C 40.813 71.795,41.011 72.104,41.082 72.333 C 41.154 72.563,41.408 73.051,41.648 73.419 C 42.317 74.447,42.468 74.703,42.778 75.333 C 42.937 75.654,43.116 75.954,43.177 76.000 C 43.238 76.046,43.341 76.252,43.405 76.458 C 43.470 76.665,43.592 76.833,43.678 76.833 C 43.763 76.833,43.833 76.946,43.833 77.083 C 43.833 77.221,43.908 77.333,44.000 77.333 C 44.092 77.333,44.167 77.483,44.167 77.667 C 44.167 77.850,44.242 78.000,44.333 78.000 C 44.425 78.000,44.500 78.112,44.500 78.250 C 44.500 78.387,44.574 78.500,44.663 78.500 C 44.753 78.500,44.874 78.688,44.932 78.917 C 45.112 79.635,46.500 79.265,46.500 78.498 C 46.500 78.407,46.575 78.333,46.667 78.333 C 46.758 78.333,46.833 78.183,46.833 78.000 C 46.833 77.817,46.900 77.667,46.982 77.667 C 47.064 77.667,47.178 77.479,47.235 77.250 C 47.293 77.021,47.413 76.833,47.503 76.833 C 47.593 76.833,47.667 76.683,47.667 76.500 C 47.667 76.317,47.742 76.167,47.833 76.167 C 47.925 76.167,48.000 76.054,48.000 75.917 C 48.000 75.779,48.057 75.667,48.126 75.667 C 48.195 75.667,48.344 75.460,48.456 75.208 C 48.568 74.956,48.918 74.358,49.234 73.880 C 49.549 73.401,49.860 72.845,49.924 72.643 C 49.988 72.441,50.182 72.124,50.354 71.940 C 50.526 71.755,50.667 71.505,50.667 71.385 C 50.667 71.265,50.726 71.167,50.799 71.167 C 50.872 71.167,51.071 70.829,51.241 70.417 C 51.411 70.004,51.614 69.667,51.692 69.667 C 51.770 69.667,51.833 69.554,51.833 69.417 C 51.833 69.279,51.908 69.167,52.000 69.167 C 52.092 69.167,52.167 69.017,52.167 68.833 C 52.167 68.650,52.225 68.500,52.297 68.500 C 52.368 68.500,52.513 68.294,52.618 68.042 C 52.826 67.544,53.356 66.634,53.516 66.500 C 53.571 66.454,53.661 66.228,53.718 65.997 C 53.774 65.766,53.973 65.413,54.160 65.212 C 54.347 65.011,54.500 64.769,54.500 64.674 C 54.500 64.578,54.575 64.500,54.667 64.500 C 54.758 64.500,54.833 64.350,54.833 64.167 C 54.833 63.983,54.903 63.833,54.989 63.833 C 55.074 63.833,55.196 63.670,55.259 63.471 C 55.322 63.272,55.515 62.958,55.687 62.773 C 55.859 62.588,56.000 62.301,56.000 62.135 C 56.000 61.969,56.074 61.833,56.163 61.833 C 56.253 61.833,56.378 61.627,56.440 61.375 C 56.502 61.123,56.691 60.795,56.860 60.647 C 57.029 60.499,57.167 60.293,57.167 60.189 C 57.167 60.085,57.242 60.000,57.333 60.000 C 57.425 60.000,57.500 59.885,57.500 59.744 C 57.500 59.520,57.919 58.733,58.163 58.500 C 58.596 58.086,58.850 56.833,58.500 56.833 C 58.408 56.833,58.333 56.683,58.333 56.500 C 58.333 56.317,58.274 56.167,58.202 56.167 C 58.130 56.167,57.849 55.735,57.578 55.208 C 57.307 54.681,57.036 54.212,56.976 54.167 C 56.916 54.121,56.685 53.746,56.461 53.333 C 55.672 51.874,55.115 50.911,54.810 50.474 C 54.639 50.231,54.500 49.968,54.500 49.891 C 54.500 49.813,54.312 49.532,54.083 49.266 C 53.854 48.999,53.667 48.657,53.667 48.506 C 53.667 48.354,53.517 48.069,53.333 47.872 C 53.150 47.675,53.000 47.398,53.000 47.257 C 53.000 47.116,52.926 47.000,52.837 47.000 C 52.747 47.000,52.626 46.813,52.568 46.583 C 52.511 46.354,52.415 46.167,52.356 46.167 C 52.297 46.167,52.141 45.923,52.009 45.625 C 51.878 45.327,51.672 44.984,51.552 44.863 C 51.432 44.742,51.333 44.536,51.333 44.405 C 51.333 44.274,51.258 44.167,51.167 44.167 C 51.075 44.167,51.000 44.017,51.000 43.833 C 51.000 43.650,50.925 43.500,50.833 43.500 C 50.742 43.500,50.667 43.387,50.667 43.250 C 50.667 43.112,50.610 42.999,50.542 42.998 C 50.473 42.997,50.268 42.678,50.086 42.290 C 49.904 41.901,49.716 41.546,49.669 41.500 C 49.622 41.454,49.471 41.192,49.333 40.917 C 49.196 40.642,49.045 40.379,48.996 40.333 C 48.784 40.131,48.333 39.327,48.333 39.150 C 48.333 39.043,48.196 38.834,48.028 38.686 C 47.860 38.538,47.583 38.098,47.412 37.708 C 47.242 37.319,47.056 37.000,46.999 37.000 C 46.942 37.000,46.793 36.737,46.667 36.417 C 46.541 36.096,46.385 35.833,46.320 35.833 C 46.256 35.833,46.156 35.646,46.098 35.417 C 46.041 35.188,45.920 35.000,45.830 35.000 C 45.740 35.000,45.667 34.850,45.667 34.667 C 45.667 34.483,45.592 34.333,45.500 34.333 C 45.408 34.333,45.333 34.221,45.333 34.083 C 45.333 33.946,45.270 33.833,45.192 33.833 C 45.114 33.833,44.911 33.496,44.741 33.083 C 44.571 32.671,44.372 32.333,44.299 32.333 C 44.226 32.333,44.167 32.183,44.167 32.000 C 44.167 31.817,44.101 31.667,44.020 31.667 C 43.939 31.667,43.658 31.235,43.395 30.708 C 43.132 30.181,42.860 29.725,42.792 29.694 C 42.723 29.664,42.667 29.533,42.667 29.403 C 42.667 29.273,42.599 29.167,42.517 29.167 C 42.434 29.167,42.228 28.829,42.058 28.417 C 41.889 28.005,41.694 27.668,41.625 27.667 C 41.556 27.667,41.500 27.568,41.500 27.448 C 41.500 27.328,41.353 27.072,41.173 26.879 C 40.994 26.686,40.800 26.342,40.743 26.114 C 40.686 25.886,40.495 25.545,40.319 25.357 C 40.144 25.168,40.000 24.936,40.000 24.840 C 40.000 24.745,39.931 24.667,39.846 24.667 C 39.762 24.667,39.606 24.403,39.499 24.082 C 39.393 23.760,39.219 23.401,39.112 23.283 C 38.822 22.966,38.537 22.492,38.211 21.792 C 38.052 21.448,37.864 21.167,37.794 21.167 C 37.724 21.167,37.667 21.051,37.667 20.910 C 37.667 20.768,37.512 20.487,37.322 20.285 C 37.132 20.082,36.935 19.710,36.884 19.458 C 36.833 19.206,36.726 19.000,36.646 19.000 C 36.566 19.000,36.500 18.887,36.500 18.750 C 36.500 18.612,36.425 18.500,36.333 18.500 C 36.242 18.500,36.167 18.350,36.167 18.167 C 36.167 17.983,36.109 17.833,36.038 17.833 C 35.967 17.833,35.762 17.552,35.583 17.208 C 35.238 16.546,34.652 15.639,34.481 15.500 C 34.424 15.454,34.321 15.229,34.251 15.000 C 34.112 14.549,33.510 13.618,33.298 13.528 C 33.226 13.497,33.167 13.334,33.167 13.165 C 33.167 12.996,33.070 12.758,32.951 12.637 C 32.833 12.516,32.636 12.173,32.514 11.875 C 32.393 11.577,32.228 11.333,32.150 11.333 C 32.071 11.333,31.959 11.146,31.902 10.917 C 31.844 10.688,31.730 10.500,31.649 10.500 C 31.567 10.500,31.500 10.350,31.500 10.167 C 31.500 9.983,31.425 9.833,31.333 9.833 C 31.242 9.833,31.167 9.721,31.167 9.583 C 31.167 9.446,31.092 9.333,31.000 9.333 C 30.908 9.333,30.833 9.221,30.833 9.083 C 30.833 8.946,30.764 8.833,30.680 8.833 C 30.596 8.833,30.477 8.608,30.417 8.333 C 30.356 8.058,30.256 7.833,30.194 7.833 C 30.132 7.833,29.975 7.590,29.846 7.292 C 29.716 6.994,29.565 6.712,29.510 6.667 C 29.276 6.473,28.833 5.659,28.833 5.423 C 28.833 5.282,28.758 5.167,28.667 5.167 C 28.575 5.167,28.500 5.054,28.500 4.917 C 28.500 4.779,28.432 4.667,28.350 4.667 C 28.267 4.667,28.119 4.460,28.021 4.208 C 27.800 3.638,27.006 2.279,26.829 2.166 C 26.756 2.120,26.569 1.763,26.413 1.373 C 26.036 0.430,27.105 0.501,12.708 0.456 L -0.000 0.417 -0.000 1.021 M103.000 39.917 C 103.000 66.083,103.056 79.333,103.167 79.333 C 103.277 79.333,103.333 66.083,103.333 39.917 C 103.333 13.750,103.277 0.500,103.167 0.500 C 103.056 0.500,103.000 13.750,103.000 39.917 M151.449 31.399 C 151.381 31.572,151.365 31.754,151.413 31.802 C 151.565 31.954,151.699 31.705,151.635 31.388 C 151.576 31.098,151.568 31.099,151.449 31.399 M221.794 31.451 C 222.001 31.491,222.301 31.490,222.460 31.448 C 222.620 31.406,222.450 31.374,222.083 31.375 C 221.717 31.377,221.586 31.411,221.794 31.451 M241.208 31.615 C 241.369 31.657,241.631 31.657,241.792 31.615 C 241.952 31.573,241.821 31.539,241.500 31.539 C 241.179 31.539,241.048 31.573,241.208 31.615 M284.627 31.618 C 284.834 31.658,285.134 31.656,285.294 31.615 C 285.453 31.573,285.283 31.540,284.917 31.542 C 284.550 31.544,284.420 31.578,284.627 31.618 M324.125 31.618 C 324.331 31.657,324.669 31.657,324.875 31.618 C 325.081 31.578,324.912 31.545,324.500 31.545 C 324.087 31.545,323.919 31.578,324.125 31.618 M334.627 31.618 C 334.834 31.658,335.134 31.656,335.294 31.615 C 335.453 31.573,335.283 31.540,334.917 31.542 C 334.550 31.544,334.420 31.578,334.627 31.618 M354.621 31.620 C 354.917 31.657,355.442 31.658,355.788 31.622 C 356.134 31.586,355.892 31.555,355.250 31.555 C 354.608 31.554,354.325 31.583,354.621 31.620 M368.877 31.620 C 369.131 31.658,369.506 31.657,369.711 31.617 C 369.916 31.578,369.708 31.546,369.250 31.548 C 368.792 31.549,368.624 31.581,368.877 31.620 M281.417 39.750 C 281.417 47.727,281.421 47.833,281.750 47.820 C 281.933 47.813,281.990 47.769,281.875 47.723 C 281.712 47.657,281.667 45.886,281.667 39.653 C 281.667 35.260,281.610 31.667,281.542 31.667 C 281.473 31.667,281.417 35.304,281.417 39.750 M323.005 39.643 C 322.991 47.833,323.010 48.057,323.703 47.779 C 323.837 47.725,323.808 47.688,323.625 47.680 C 323.352 47.667,323.333 47.174,323.333 39.750 C 323.333 34.896,323.272 31.833,323.176 31.833 C 323.080 31.833,323.013 34.865,323.005 39.643 M336.410 39.500 C 336.410 43.762,336.432 45.506,336.458 43.375 C 336.485 41.244,336.485 37.756,336.458 35.625 C 336.432 33.494,336.410 35.237,336.410 39.500 M346.373 39.789 C 346.416 47.604,346.423 47.746,346.750 47.786 C 346.933 47.809,346.990 47.785,346.875 47.733 C 346.713 47.660,346.667 45.897,346.667 39.736 C 346.667 34.528,346.609 31.833,346.498 31.833 C 346.387 31.833,346.345 34.517,346.373 39.789 M239.410 39.833 C 239.410 44.096,239.432 45.840,239.458 43.708 C 239.485 41.577,239.485 38.090,239.458 35.958 C 239.432 33.827,239.410 35.571,239.410 39.833 M221.910 34.489 C 221.963 34.575,222.150 34.635,222.325 34.621 C 222.740 34.590,222.582 34.333,222.147 34.333 C 221.964 34.333,221.857 34.404,221.910 34.489 M243.713 35.123 C 244.152 35.157,244.827 35.157,245.213 35.122 C 245.600 35.087,245.242 35.059,244.417 35.059 C 243.592 35.060,243.275 35.088,243.713 35.123 M285.875 35.123 C 286.310 35.157,287.023 35.157,287.458 35.123 C 287.894 35.088,287.537 35.060,286.667 35.060 C 285.796 35.060,285.440 35.088,285.875 35.123 M302.875 35.124 C 303.494 35.156,304.506 35.156,305.125 35.124 C 305.744 35.092,305.237 35.065,304.000 35.065 C 302.762 35.065,302.256 35.092,302.875 35.124 M310.708 35.124 C 311.327 35.156,312.340 35.156,312.958 35.124 C 313.577 35.092,313.071 35.065,311.833 35.065 C 310.596 35.065,310.090 35.092,310.708 35.124 M352.051 35.125 C 353.133 35.154,354.858 35.154,355.884 35.124 C 356.910 35.095,356.025 35.071,353.917 35.071 C 351.808 35.072,350.969 35.095,352.051 35.125 M372.208 35.123 C 372.644 35.157,373.356 35.157,373.792 35.123 C 374.227 35.088,373.871 35.060,373.000 35.060 C 372.129 35.060,371.773 35.088,372.208 35.123 M388.444 35.444 C 388.269 35.620,388.315 37.136,388.500 37.250 C 388.604 37.314,388.667 36.974,388.667 36.343 C 388.667 35.325,388.646 35.243,388.444 35.444 M150.648 37.292 C 150.537 38.021,150.545 38.333,150.677 38.333 C 150.763 38.333,150.833 38.071,150.833 37.750 C 150.833 37.247,150.703 36.926,150.648 37.292 M351.866 37.791 C 352.846 37.820,354.496 37.820,355.532 37.791 C 356.569 37.762,355.767 37.738,353.750 37.738 C 351.733 37.738,350.885 37.762,351.866 37.791 M326.503 42.708 C 326.500 47.317,326.479 47.667,326.208 47.669 C 325.973 47.671,325.962 47.700,326.152 47.820 C 326.798 48.230,326.833 47.981,326.831 43.024 C 326.829 40.230,326.761 38.146,326.667 38.000 C 326.560 37.835,326.504 39.445,326.503 42.708 M374.250 38.667 C 374.193 38.758,374.301 38.833,374.490 38.833 C 374.679 38.833,374.833 38.758,374.833 38.667 C 374.833 38.575,374.725 38.500,374.593 38.500 C 374.461 38.500,374.307 38.575,374.250 38.667 M264.013 41.125 C 264.000 41.488,264.049 41.500,265.583 41.500 C 266.528 41.500,267.167 41.433,267.167 41.333 C 267.167 41.235,266.560 41.167,265.681 41.167 C 264.648 41.167,264.169 41.103,264.110 40.958 C 264.064 40.844,264.020 40.919,264.013 41.125 M351.884 41.291 C 352.874 41.321,354.449 41.321,355.384 41.291 C 356.319 41.261,355.508 41.237,353.583 41.237 C 351.658 41.237,350.894 41.262,351.884 41.291 M150.500 42.240 C 150.500 42.464,150.575 42.693,150.667 42.750 C 150.764 42.810,150.833 42.641,150.833 42.343 C 150.833 42.063,150.758 41.833,150.667 41.833 C 150.575 41.833,150.500 42.016,150.500 42.240 M350.167 44.500 C 350.167 44.606,351.614 44.667,354.177 44.667 C 356.807 44.667,358.151 44.609,358.083 44.500 C 358.019 44.397,356.498 44.333,354.073 44.333 C 351.580 44.333,350.167 44.394,350.167 44.500 M394.208 44.615 C 394.369 44.657,394.631 44.657,394.792 44.615 C 394.952 44.573,394.821 44.539,394.500 44.539 C 394.179 44.539,394.048 44.573,394.208 44.615 M231.615 47.579 C 231.449 47.701,231.378 47.841,231.456 47.890 C 231.657 48.014,232.053 47.741,231.979 47.531 C 231.939 47.419,231.809 47.436,231.615 47.579 M261.500 47.593 C 261.500 47.747,261.422 47.805,261.308 47.734 C 261.186 47.659,261.161 47.689,261.239 47.816 C 261.334 47.969,261.418 47.970,261.598 47.821 C 261.871 47.594,261.908 47.333,261.667 47.333 C 261.575 47.333,261.500 47.450,261.500 47.593 M367.698 47.677 C 367.738 47.797,367.869 47.929,367.990 47.969 C 368.115 48.010,368.177 47.948,368.135 47.823 C 368.095 47.703,367.964 47.571,367.844 47.531 C 367.719 47.490,367.656 47.552,367.698 47.677 M162.347 68.377 C 162.385 68.401,162.585 68.562,162.792 68.736 C 162.998 68.910,163.167 69.008,163.167 68.954 C 163.167 68.786,162.651 68.333,162.460 68.333 C 162.360 68.333,162.309 68.353,162.347 68.377 "
        ></path>
        <path
            fill="#cc0033"
            d="M185.458 0.113 C 184.656 0.149,184.000 0.252,184.000 0.340 C 184.000 0.428,183.827 0.500,183.617 0.500 C 183.406 0.500,183.143 0.590,183.033 0.700 C 182.923 0.810,182.833 0.827,182.833 0.737 C 182.833 0.539,181.535 0.642,181.406 0.851 C 181.355 0.933,180.962 1.001,180.532 1.003 C 179.966 1.004,179.819 1.050,180.000 1.167 C 180.181 1.284,180.031 1.329,179.458 1.331 C 179.023 1.332,178.667 1.408,178.667 1.500 C 178.667 1.592,178.511 1.667,178.321 1.667 C 178.132 1.667,177.864 1.779,177.726 1.917 C 177.589 2.054,177.182 2.167,176.821 2.167 C 176.461 2.167,176.167 2.242,176.167 2.333 C 176.167 2.425,175.979 2.500,175.750 2.500 C 175.521 2.500,175.333 2.575,175.333 2.667 C 175.333 2.758,175.227 2.833,175.097 2.833 C 174.967 2.833,174.835 2.912,174.803 3.008 C 174.771 3.105,174.483 3.224,174.164 3.273 C 173.845 3.323,173.558 3.432,173.528 3.515 C 173.497 3.598,173.381 3.667,173.269 3.667 C 172.831 3.667,172.169 4.099,172.168 4.386 C 172.167 4.605,172.081 4.662,171.859 4.591 C 171.489 4.474,170.529 4.919,170.863 5.052 C 170.984 5.101,170.874 5.146,170.617 5.154 C 170.356 5.161,169.968 5.350,169.735 5.583 C 169.506 5.813,169.209 6.000,169.076 6.000 C 168.942 6.000,168.833 6.075,168.833 6.167 C 168.833 6.258,168.755 6.333,168.659 6.333 C 168.564 6.333,168.283 6.521,168.036 6.750 C 167.789 6.979,167.493 7.167,167.378 7.167 C 167.263 7.167,167.076 7.317,166.961 7.500 C 166.847 7.683,166.633 7.833,166.487 7.833 C 166.340 7.833,166.135 8.021,166.030 8.250 C 165.926 8.479,165.765 8.667,165.672 8.667 C 165.339 8.667,163.984 9.924,164.135 10.093 C 164.198 10.163,164.166 10.172,164.063 10.114 C 163.853 9.994,163.167 10.523,163.167 10.805 C 163.167 10.906,162.998 11.077,162.792 11.185 C 162.585 11.294,162.304 11.533,162.167 11.718 C 162.029 11.902,161.673 12.280,161.375 12.557 C 161.077 12.835,160.833 13.117,160.833 13.185 C 160.833 13.254,160.491 13.667,160.073 14.103 C 159.654 14.540,159.270 15.108,159.219 15.365 C 159.156 15.679,159.022 15.833,158.813 15.833 C 158.641 15.833,158.500 15.946,158.500 16.083 C 158.500 16.221,158.434 16.333,158.352 16.333 C 158.271 16.333,158.080 16.596,157.928 16.917 C 157.776 17.237,157.592 17.500,157.520 17.500 C 157.448 17.500,157.173 17.912,156.909 18.417 C 156.645 18.921,156.389 19.333,156.339 19.333 C 156.289 19.333,156.142 19.577,156.012 19.875 C 155.883 20.173,155.729 20.454,155.671 20.500 C 155.613 20.546,155.428 20.883,155.258 21.250 C 155.089 21.617,154.883 21.961,154.800 22.015 C 154.718 22.069,154.638 22.270,154.624 22.462 C 154.609 22.653,154.538 22.774,154.465 22.729 C 154.352 22.659,154.298 22.906,154.348 23.273 C 154.355 23.332,154.282 23.429,154.185 23.489 C 154.088 23.549,153.986 23.745,153.958 23.924 C 153.930 24.103,153.835 24.363,153.746 24.500 C 153.374 25.078,153.167 25.557,153.167 25.838 C 153.167 26.004,153.095 26.164,153.008 26.194 C 152.921 26.225,152.799 26.738,152.736 27.333 C 152.657 28.077,152.524 28.501,152.310 28.686 C 152.097 28.872,151.999 29.184,151.997 29.686 C 151.996 30.219,151.951 30.349,151.833 30.167 C 151.719 29.989,151.671 30.195,151.669 30.875 C 151.668 31.447,151.594 31.833,151.487 31.833 C 151.381 31.833,151.327 32.104,151.355 32.493 C 151.382 32.856,151.350 33.206,151.285 33.271 C 151.220 33.336,151.167 33.676,151.167 34.028 C 151.167 34.379,151.092 34.667,151.000 34.667 C 150.899 34.667,150.833 35.389,150.833 36.500 C 150.833 37.611,150.768 38.333,150.667 38.333 C 150.566 38.333,150.500 39.028,150.500 40.083 C 150.500 41.139,150.566 41.833,150.667 41.833 C 150.768 41.833,150.833 42.556,150.833 43.667 C 150.833 44.778,150.899 45.500,151.000 45.500 C 151.092 45.500,151.167 45.579,151.167 45.677 C 151.167 45.774,151.091 45.806,150.999 45.749 C 150.888 45.681,150.883 45.777,150.985 46.031 C 151.330 46.893,151.375 47.113,151.342 47.792 C 151.322 48.207,151.382 48.500,151.487 48.500 C 151.589 48.500,151.667 48.826,151.667 49.250 C 151.667 49.738,151.740 50.001,151.875 50.003 C 152.014 50.004,152.000 50.059,151.833 50.167 C 151.667 50.274,151.653 50.329,151.792 50.331 C 151.918 50.332,152.000 50.562,152.000 50.917 C 152.000 51.237,152.075 51.500,152.167 51.500 C 152.258 51.500,152.333 51.612,152.333 51.750 C 152.333 51.887,152.401 52.000,152.484 52.000 C 152.566 52.000,152.686 52.450,152.750 53.000 C 152.814 53.550,152.934 54.042,153.016 54.093 C 153.099 54.145,153.167 54.369,153.167 54.593 C 153.167 54.817,153.242 55.000,153.333 55.000 C 153.425 55.000,153.500 55.150,153.500 55.333 C 153.500 55.517,153.572 55.667,153.659 55.667 C 153.747 55.667,153.868 55.930,153.928 56.252 C 153.988 56.574,154.104 56.878,154.186 56.928 C 154.267 56.979,154.333 57.165,154.333 57.343 C 154.333 57.521,154.408 57.667,154.500 57.667 C 154.592 57.667,154.667 57.779,154.667 57.917 C 154.667 58.054,154.730 58.167,154.808 58.167 C 154.886 58.167,155.089 58.504,155.259 58.917 C 155.429 59.329,155.628 59.667,155.701 59.667 C 155.774 59.667,155.833 59.789,155.833 59.939 C 155.833 60.088,155.973 60.332,156.143 60.480 C 156.313 60.629,156.506 60.919,156.571 61.125 C 156.636 61.331,156.745 61.500,156.813 61.500 C 156.882 61.500,157.041 61.762,157.167 62.083 C 157.293 62.404,157.498 62.667,157.624 62.667 C 157.750 62.667,157.812 62.733,157.762 62.814 C 157.711 62.896,157.782 63.055,157.919 63.168 C 158.055 63.281,158.167 63.447,158.167 63.537 C 158.167 63.626,158.407 63.924,158.701 64.199 C 158.995 64.473,159.251 64.808,159.271 64.943 C 159.291 65.078,159.482 65.331,159.695 65.506 C 159.909 65.682,160.148 65.893,160.227 65.977 C 160.991 66.788,161.167 67.009,161.167 67.159 C 161.167 67.255,161.321 67.333,161.510 67.333 C 161.699 67.333,161.815 67.395,161.769 67.470 C 161.722 67.545,161.826 67.708,162.000 67.833 C 162.174 67.958,162.283 68.114,162.242 68.179 C 162.202 68.244,162.356 68.345,162.584 68.402 C 162.813 68.459,163.000 68.574,163.000 68.657 C 163.000 68.852,164.981 70.833,165.177 70.833 C 165.260 70.833,165.598 71.096,165.928 71.417 C 166.258 71.737,166.586 72.000,166.656 72.000 C 166.726 72.000,167.008 72.214,167.282 72.476 C 167.557 72.738,168.093 73.090,168.474 73.258 C 168.855 73.427,169.167 73.625,169.167 73.699 C 169.167 73.773,169.263 73.833,169.380 73.833 C 169.497 73.833,169.701 73.983,169.833 74.167 C 169.965 74.350,170.207 74.500,170.370 74.500 C 170.533 74.500,170.667 74.567,170.667 74.649 C 170.667 74.730,170.854 74.844,171.083 74.902 C 171.313 74.959,171.500 75.080,171.500 75.170 C 171.500 75.260,171.650 75.333,171.833 75.333 C 172.017 75.333,172.167 75.408,172.167 75.500 C 172.167 75.592,172.348 75.667,172.569 75.667 C 172.791 75.667,172.997 75.723,173.028 75.792 C 173.058 75.860,173.346 76.038,173.667 76.186 C 173.987 76.334,174.588 76.611,175.000 76.801 C 175.412 76.991,176.007 77.198,176.322 77.260 C 176.637 77.322,177.145 77.514,177.452 77.687 C 177.759 77.859,178.275 78.000,178.598 78.000 C 178.948 78.000,179.145 78.068,179.083 78.167 C 178.997 78.306,179.733 78.428,180.208 78.353 C 180.277 78.342,180.333 78.399,180.333 78.480 C 180.333 78.561,180.789 78.660,181.347 78.700 C 181.979 78.746,182.415 78.863,182.507 79.012 C 182.741 79.391,198.070 79.365,198.667 78.984 C 198.896 78.838,199.421 78.700,199.833 78.678 C 200.246 78.656,200.608 78.569,200.639 78.486 C 200.669 78.402,200.946 78.333,201.254 78.333 C 201.562 78.333,201.860 78.258,201.917 78.167 C 201.973 78.075,202.236 78.000,202.500 78.000 C 202.806 78.000,203.082 77.863,203.258 77.625 C 203.426 77.397,203.564 77.326,203.610 77.444 C 203.665 77.586,203.804 77.575,204.134 77.403 C 204.381 77.274,204.790 77.168,205.042 77.168 C 205.294 77.167,205.500 77.092,205.500 77.000 C 205.500 76.908,205.688 76.833,205.917 76.833 C 206.146 76.833,206.333 76.758,206.333 76.667 C 206.333 76.575,206.483 76.500,206.667 76.500 C 206.937 76.500,207.000 76.389,207.000 75.917 C 207.000 75.596,206.925 75.333,206.833 75.333 C 206.742 75.333,206.667 75.221,206.667 75.083 C 206.667 74.946,206.592 74.833,206.500 74.833 C 206.408 74.833,206.333 74.683,206.333 74.500 C 206.333 74.317,206.260 74.167,206.170 74.167 C 206.080 74.167,205.959 73.979,205.902 73.750 C 205.844 73.521,205.730 73.333,205.649 73.333 C 205.567 73.333,205.500 73.183,205.500 73.000 C 205.500 72.817,205.425 72.667,205.333 72.667 C 205.242 72.667,205.167 72.582,205.167 72.478 C 205.167 72.374,205.027 72.168,204.856 72.019 C 204.685 71.871,204.491 71.506,204.426 71.208 C 204.360 70.910,204.238 70.667,204.153 70.667 C 204.069 70.667,204.000 70.563,204.000 70.437 C 204.000 70.311,203.891 70.117,203.758 70.007 C 203.625 69.897,203.356 69.475,203.160 69.070 C 202.964 68.665,202.735 68.333,202.652 68.333 C 202.568 68.333,202.500 68.188,202.500 68.010 C 202.500 67.832,202.422 67.638,202.326 67.579 C 202.231 67.520,202.035 67.178,201.892 66.819 C 201.748 66.460,201.564 66.167,201.482 66.167 C 201.400 66.167,201.333 66.054,201.333 65.917 C 201.333 65.779,201.258 65.667,201.167 65.667 C 201.075 65.667,201.000 65.517,201.000 65.333 C 201.000 65.150,200.926 65.000,200.837 65.000 C 200.747 65.000,200.626 64.812,200.568 64.583 C 200.511 64.354,200.397 64.167,200.315 64.167 C 200.234 64.167,200.167 64.017,200.167 63.833 C 200.167 63.650,200.092 63.500,200.000 63.500 C 199.908 63.500,199.833 63.426,199.833 63.335 C 199.833 63.244,199.670 62.981,199.470 62.751 C 199.103 62.329,198.667 62.193,198.667 62.500 C 198.667 62.592,198.479 62.667,198.250 62.667 C 198.021 62.667,197.833 62.742,197.833 62.833 C 197.833 62.925,197.690 63.000,197.514 63.000 C 197.338 63.000,197.168 63.079,197.136 63.177 C 197.103 63.274,196.497 63.397,195.788 63.451 C 195.080 63.504,194.500 63.612,194.500 63.691 C 194.500 63.880,187.044 63.876,186.972 63.687 C 186.942 63.607,186.247 63.491,185.429 63.429 C 184.252 63.340,183.883 63.249,183.660 62.992 C 183.490 62.796,183.166 62.667,182.846 62.667 C 182.553 62.667,182.348 62.610,182.391 62.542 C 182.433 62.473,182.006 62.271,181.442 62.092 C 180.878 61.914,180.271 61.633,180.094 61.467 C 179.916 61.302,179.635 61.167,179.469 61.167 C 179.303 61.167,179.167 61.092,179.167 61.000 C 179.167 60.908,179.038 60.833,178.880 60.833 C 178.723 60.833,178.440 60.665,178.253 60.458 C 177.869 60.036,177.391 59.704,176.958 59.559 C 176.798 59.505,176.667 59.395,176.667 59.314 C 176.667 59.233,176.600 59.167,176.519 59.167 C 176.437 59.167,175.931 58.737,175.394 58.213 C 174.856 57.688,174.360 57.276,174.292 57.296 C 174.223 57.317,174.167 57.253,174.167 57.155 C 174.167 57.057,174.054 56.864,173.917 56.726 C 173.741 56.551,173.667 56.538,173.667 56.683 C 173.667 56.960,173.485 56.764,173.436 56.434 C 173.415 56.290,173.046 55.834,172.616 55.422 C 172.185 55.010,171.833 54.559,171.833 54.419 C 171.833 54.280,171.758 54.167,171.667 54.167 C 171.575 54.167,171.500 54.054,171.500 53.917 C 171.500 53.779,171.425 53.667,171.333 53.667 C 171.242 53.667,171.167 53.550,171.167 53.407 C 171.167 53.264,171.091 53.194,170.998 53.251 C 170.904 53.309,170.784 53.128,170.727 52.844 C 170.671 52.563,170.559 52.333,170.479 52.333 C 170.399 52.333,170.333 52.221,170.333 52.083 C 170.333 51.946,170.258 51.833,170.167 51.833 C 170.075 51.833,170.000 51.683,170.000 51.500 C 170.000 51.317,169.933 51.167,169.851 51.167 C 169.770 51.167,169.656 50.979,169.598 50.750 C 169.541 50.521,169.420 50.333,169.330 50.333 C 169.240 50.333,169.167 50.146,169.167 49.917 C 169.167 49.688,169.092 49.500,169.000 49.500 C 168.908 49.500,168.833 49.275,168.833 49.000 C 168.833 48.725,168.758 48.500,168.667 48.500 C 168.575 48.500,168.500 48.319,168.500 48.097 C 168.500 47.876,168.421 47.668,168.325 47.636 C 168.229 47.604,168.106 47.150,168.052 46.627 C 167.998 46.103,167.890 45.715,167.810 45.764 C 167.731 45.813,167.667 45.403,167.667 44.853 C 167.667 44.303,167.592 43.807,167.500 43.750 C 167.398 43.687,167.333 42.392,167.333 40.421 C 167.333 37.996,167.282 37.174,167.125 37.110 C 166.958 37.043,166.958 37.024,167.125 37.013 C 167.240 37.006,167.333 36.813,167.333 36.583 C 167.333 36.354,167.408 36.167,167.500 36.167 C 167.594 36.167,167.667 35.694,167.667 35.083 C 167.667 34.472,167.739 34.000,167.833 34.000 C 167.925 34.000,168.000 33.756,168.001 33.458 C 168.002 33.160,168.114 32.702,168.251 32.439 C 168.388 32.177,168.500 31.820,168.500 31.648 C 168.500 31.475,168.575 31.333,168.667 31.333 C 168.758 31.333,168.833 31.146,168.833 30.917 C 168.833 30.688,168.908 30.500,169.000 30.500 C 169.092 30.500,169.167 30.354,169.167 30.177 C 169.167 29.999,169.242 29.807,169.333 29.750 C 169.425 29.693,169.500 29.507,169.500 29.335 C 169.500 29.164,169.617 28.907,169.760 28.764 C 169.903 28.620,170.032 28.353,170.046 28.168 C 170.060 27.984,170.130 27.833,170.202 27.833 C 170.274 27.833,170.333 27.716,170.333 27.573 C 170.333 27.431,170.408 27.360,170.500 27.417 C 170.645 27.506,170.746 27.168,170.686 26.792 C 170.676 26.723,170.779 26.667,170.917 26.667 C 171.054 26.667,171.167 26.554,171.167 26.417 C 171.167 26.279,171.228 26.167,171.302 26.167 C 171.454 26.167,172.077 24.988,172.030 24.792 C 172.014 24.723,172.082 24.685,172.182 24.708 C 172.282 24.731,172.451 24.607,172.557 24.432 C 172.945 23.792,176.717 20.167,176.995 20.167 C 177.090 20.167,177.167 20.095,177.167 20.008 C 177.167 19.920,177.426 19.726,177.744 19.575 C 178.061 19.424,178.366 19.158,178.422 18.984 C 178.477 18.809,178.629 18.667,178.760 18.667 C 179.099 18.667,180.333 18.113,180.333 17.961 C 180.333 17.891,180.437 17.833,180.563 17.833 C 180.689 17.833,180.886 17.721,181.000 17.583 C 181.114 17.446,181.423 17.333,181.687 17.333 C 181.951 17.333,182.167 17.258,182.167 17.167 C 182.167 17.075,182.387 17.000,182.657 17.000 C 182.926 17.000,183.193 16.925,183.250 16.833 C 183.307 16.742,183.536 16.667,183.760 16.667 C 183.984 16.667,184.167 16.592,184.167 16.500 C 184.167 16.408,184.273 16.333,184.403 16.333 C 184.533 16.333,184.665 16.256,184.696 16.161 C 184.730 16.061,185.707 15.946,187.038 15.886 C 188.294 15.829,189.282 15.719,189.234 15.641 C 189.186 15.564,189.793 15.500,190.583 15.500 C 191.373 15.500,191.980 15.564,191.932 15.642 C 191.884 15.720,192.814 15.827,193.999 15.879 C 195.871 15.963,196.203 16.021,196.525 16.321 C 196.773 16.552,197.121 16.668,197.573 16.669 C 198.072 16.671,198.184 16.714,198.000 16.833 C 197.804 16.960,197.848 16.995,198.198 16.997 C 198.445 16.999,198.689 17.068,198.741 17.152 C 198.793 17.236,199.135 17.355,199.501 17.417 C 199.867 17.479,200.167 17.598,200.167 17.681 C 200.167 17.765,200.429 17.833,200.750 17.833 C 201.071 17.833,201.333 17.753,201.333 17.655 C 201.333 17.557,201.447 17.363,201.585 17.225 C 201.723 17.086,201.794 16.904,201.742 16.820 C 201.690 16.736,201.726 16.667,201.823 16.667 C 201.921 16.667,202.000 16.517,202.000 16.333 C 202.000 16.150,202.094 15.999,202.208 15.999 C 202.453 15.997,202.832 15.248,202.836 14.758 C 202.837 14.546,202.885 14.490,202.962 14.611 C 203.039 14.732,203.210 14.526,203.414 14.069 C 203.594 13.665,203.800 13.333,203.871 13.333 C 203.942 13.333,204.000 13.221,204.000 13.083 C 204.000 12.946,204.075 12.833,204.167 12.833 C 204.258 12.833,204.333 12.664,204.333 12.457 C 204.333 12.249,204.506 11.893,204.718 11.665 C 204.929 11.437,205.210 11.006,205.342 10.708 C 205.474 10.410,205.638 10.167,205.707 10.167 C 205.777 10.167,205.833 10.060,205.833 9.929 C 205.833 9.798,205.927 9.591,206.042 9.470 C 206.156 9.349,206.362 9.025,206.500 8.750 C 206.637 8.475,206.808 8.207,206.879 8.154 C 206.950 8.102,207.042 7.882,207.083 7.667 C 207.125 7.451,207.227 7.231,207.311 7.179 C 207.559 7.023,208.667 5.050,208.667 4.764 C 208.667 4.619,208.742 4.500,208.833 4.500 C 208.925 4.500,209.000 4.387,209.000 4.250 C 209.000 4.112,208.921 4.000,208.823 4.000 C 208.726 4.000,208.693 3.925,208.750 3.833 C 208.807 3.742,208.699 3.667,208.510 3.667 C 208.321 3.667,208.167 3.592,208.167 3.500 C 208.167 3.408,207.939 3.333,207.661 3.333 C 207.366 3.333,207.116 3.229,207.060 3.083 C 207.008 2.946,206.822 2.833,206.649 2.833 C 206.475 2.833,206.333 2.758,206.333 2.667 C 206.333 2.575,206.146 2.500,205.917 2.500 C 205.688 2.500,205.500 2.435,205.500 2.355 C 205.500 2.275,205.153 2.171,204.729 2.123 C 204.306 2.075,203.893 1.934,203.813 1.810 C 203.691 1.622,203.642 1.621,203.523 1.806 C 203.408 1.984,203.359 1.973,203.274 1.753 C 203.216 1.602,203.093 1.526,203.001 1.583 C 202.909 1.640,202.833 1.607,202.833 1.510 C 202.833 1.413,202.650 1.333,202.427 1.333 C 202.203 1.333,201.973 1.258,201.917 1.167 C 201.860 1.075,201.556 1.000,201.240 1.000 C 200.925 1.000,200.667 0.940,200.667 0.867 C 200.667 0.794,200.392 0.716,200.056 0.694 C 199.720 0.671,199.389 0.618,199.320 0.575 C 199.251 0.533,199.157 0.592,199.111 0.707 C 199.044 0.874,199.024 0.874,199.013 0.708 C 199.006 0.594,198.856 0.500,198.681 0.500 C 198.505 0.500,198.333 0.415,198.298 0.311 C 198.234 0.118,188.585 -0.031,185.458 0.113 M58.333 0.917 C 58.333 1.146,58.408 1.333,58.500 1.333 C 58.592 1.333,58.667 1.446,58.667 1.583 C 58.667 1.721,58.734 1.833,58.817 1.833 C 58.899 1.833,59.104 2.165,59.272 2.570 C 59.439 2.975,59.634 3.270,59.705 3.226 C 59.775 3.183,59.833 3.312,59.833 3.513 C 59.833 3.714,60.021 4.052,60.250 4.265 C 60.479 4.477,60.667 4.768,60.667 4.911 C 60.667 5.207,60.957 5.755,61.353 6.208 C 61.502 6.378,61.757 6.813,61.920 7.175 C 62.084 7.537,62.281 7.833,62.359 7.833 C 62.436 7.833,62.500 7.946,62.500 8.083 C 62.500 8.221,62.575 8.333,62.667 8.333 C 62.758 8.333,62.833 8.466,62.833 8.628 C 62.833 8.790,63.021 9.199,63.250 9.536 C 63.479 9.873,63.667 10.216,63.667 10.299 C 63.667 10.381,63.812 10.580,63.991 10.741 C 64.169 10.903,64.362 11.252,64.420 11.517 C 64.479 11.783,64.596 12.000,64.680 12.000 C 64.764 12.000,64.833 12.112,64.833 12.250 C 64.833 12.387,64.908 12.500,65.000 12.500 C 65.092 12.500,65.167 12.650,65.167 12.833 C 65.167 13.017,65.240 13.167,65.330 13.167 C 65.420 13.167,65.541 13.354,65.598 13.583 C 65.656 13.813,65.751 14.000,65.811 14.000 C 65.870 14.000,66.025 14.244,66.154 14.542 C 66.284 14.840,66.435 15.121,66.490 15.167 C 66.724 15.360,67.167 16.175,67.167 16.411 C 67.167 16.552,67.242 16.667,67.333 16.667 C 67.425 16.667,67.500 16.752,67.500 16.855 C 67.500 16.959,67.640 17.166,67.811 17.314 C 67.982 17.462,68.176 17.828,68.241 18.127 C 68.307 18.425,68.429 18.627,68.514 18.575 C 68.598 18.523,68.667 18.600,68.667 18.746 C 68.667 19.119,69.162 19.833,69.420 19.833 C 69.553 19.833,69.602 19.960,69.548 20.167 C 69.498 20.360,69.543 20.500,69.657 20.500 C 69.765 20.500,69.812 20.567,69.762 20.648 C 69.711 20.729,69.782 20.888,69.919 21.002 C 70.055 21.115,70.167 21.311,70.167 21.437 C 70.167 21.563,70.242 21.667,70.333 21.667 C 70.425 21.667,70.500 21.747,70.500 21.845 C 70.500 21.943,70.612 22.136,70.750 22.274 C 70.887 22.411,71.000 22.654,71.000 22.814 C 71.000 22.973,71.150 23.265,71.333 23.462 C 71.517 23.658,71.667 23.935,71.667 24.076 C 71.667 24.218,71.740 24.333,71.830 24.333 C 71.920 24.333,72.041 24.521,72.098 24.750 C 72.156 24.979,72.270 25.167,72.351 25.167 C 72.433 25.167,72.500 25.317,72.500 25.500 C 72.500 25.683,72.575 25.833,72.667 25.833 C 72.758 25.833,72.833 25.946,72.833 26.083 C 72.833 26.221,72.897 26.333,72.975 26.333 C 73.053 26.333,73.256 26.671,73.426 27.083 C 73.596 27.496,73.795 27.833,73.868 27.833 C 73.940 27.833,74.000 27.949,74.000 28.090 C 74.000 28.890,75.106 29.242,75.415 28.541 C 75.505 28.335,75.636 28.167,75.706 28.167 C 75.776 28.167,75.833 28.014,75.833 27.828 C 75.833 27.642,75.946 27.446,76.083 27.394 C 76.221 27.341,76.333 27.156,76.333 26.982 C 76.333 26.809,76.408 26.667,76.500 26.667 C 76.592 26.667,76.667 26.554,76.667 26.417 C 76.667 26.279,76.723 26.166,76.792 26.165 C 76.860 26.164,77.060 25.864,77.235 25.498 C 77.410 25.132,77.617 24.833,77.693 24.833 C 77.770 24.833,77.833 24.646,77.833 24.417 C 77.833 24.188,77.908 24.000,78.000 24.000 C 78.092 24.000,78.167 23.887,78.167 23.750 C 78.167 23.613,78.227 23.500,78.301 23.500 C 78.375 23.500,78.568 23.200,78.730 22.833 C 78.892 22.467,79.094 22.167,79.179 22.167 C 79.264 22.167,79.333 21.979,79.333 21.750 C 79.333 21.521,79.403 21.333,79.488 21.333 C 79.749 21.333,80.163 20.362,79.941 20.271 C 79.836 20.228,79.900 20.186,80.083 20.179 C 80.406 20.165,80.833 19.516,80.833 19.042 C 80.833 18.919,81.021 18.644,81.250 18.431 C 81.479 18.219,81.667 17.922,81.667 17.773 C 81.667 17.623,81.742 17.500,81.833 17.500 C 81.925 17.500,82.000 17.387,82.000 17.250 C 82.000 17.112,82.075 17.000,82.167 17.000 C 82.258 17.000,82.333 16.855,82.333 16.679 C 82.333 16.502,82.446 16.245,82.583 16.107 C 82.721 15.970,82.833 15.777,82.833 15.679 C 82.833 15.580,82.908 15.500,83.000 15.500 C 83.092 15.500,83.167 15.350,83.167 15.167 C 83.167 14.983,83.242 14.833,83.333 14.833 C 83.425 14.833,83.500 14.721,83.500 14.583 C 83.500 14.446,83.567 14.333,83.649 14.333 C 83.730 14.333,83.840 14.163,83.892 13.955 C 83.944 13.747,84.140 13.413,84.327 13.212 C 84.514 13.011,84.667 12.702,84.667 12.525 C 84.667 12.347,84.779 12.159,84.917 12.106 C 85.054 12.054,85.167 11.910,85.167 11.787 C 85.167 11.664,85.298 11.414,85.458 11.231 C 85.867 10.767,86.167 10.215,86.167 9.927 C 86.167 9.792,86.354 9.494,86.583 9.265 C 86.813 9.036,87.000 8.691,87.000 8.498 C 87.000 8.305,87.061 8.185,87.136 8.231 C 87.211 8.277,87.410 7.982,87.578 7.574 C 87.746 7.167,87.947 6.833,88.025 6.833 C 88.103 6.833,88.167 6.721,88.167 6.583 C 88.167 6.446,88.226 6.333,88.299 6.333 C 88.372 6.333,88.571 5.996,88.741 5.583 C 88.911 5.171,89.114 4.833,89.192 4.833 C 89.270 4.833,89.333 4.721,89.333 4.583 C 89.333 4.446,89.390 4.332,89.458 4.331 C 89.527 4.330,89.808 3.844,90.083 3.252 C 90.358 2.660,90.640 2.173,90.708 2.171 C 90.777 2.169,90.833 2.086,90.833 1.988 C 90.833 1.890,90.947 1.696,91.085 1.558 C 91.223 1.420,91.294 1.238,91.242 1.153 C 91.190 1.069,91.226 1.000,91.323 1.000 C 91.421 1.000,91.500 0.887,91.500 0.750 C 91.500 0.529,89.546 0.500,74.917 0.500 L 58.333 0.500 58.333 0.917 M103.333 39.917 L 103.333 79.333 122.500 79.333 L 141.667 79.333 141.667 71.417 L 141.667 63.500 130.750 63.500 L 119.833 63.500 119.833 32.000 L 119.833 0.500 111.583 0.500 L 103.333 0.500 103.333 39.917 M220.661 31.548 C 220.383 31.620,220.199 31.751,220.254 31.840 C 220.308 31.928,220.161 32.000,219.927 32.000 C 219.692 32.000,219.500 32.075,219.500 32.167 C 219.500 32.258,219.389 32.333,219.253 32.333 C 219.117 32.333,218.959 32.521,218.902 32.750 C 218.836 33.011,218.679 33.167,218.482 33.167 C 218.278 33.167,218.167 33.284,218.167 33.500 C 218.167 33.683,218.092 33.833,218.000 33.833 C 217.908 33.833,217.833 34.138,217.833 34.510 C 217.833 34.918,217.767 35.146,217.667 35.083 C 217.567 35.022,217.500 35.224,217.500 35.583 C 217.500 35.943,217.567 36.145,217.667 36.083 C 217.767 36.021,217.833 36.249,217.833 36.659 C 217.833 37.406,218.019 37.809,218.708 38.554 C 218.960 38.827,219.167 39.113,219.167 39.191 C 219.167 39.269,219.279 39.333,219.417 39.333 C 219.554 39.333,219.667 39.408,219.667 39.500 C 219.667 39.592,219.522 39.667,219.345 39.667 C 219.167 39.667,218.975 39.817,218.917 40.000 C 218.858 40.183,218.752 40.333,218.681 40.333 C 218.427 40.333,217.833 40.960,217.833 41.228 C 217.833 41.378,217.760 41.500,217.670 41.500 C 217.580 41.500,217.459 41.688,217.402 41.917 C 217.344 42.146,217.230 42.333,217.149 42.333 C 216.876 42.333,216.981 44.844,217.282 45.527 C 217.437 45.879,217.625 46.167,217.699 46.167 C 217.773 46.167,217.833 46.252,217.833 46.356 C 217.833 46.635,218.703 47.333,219.052 47.333 C 219.217 47.333,219.315 47.395,219.269 47.470 C 218.893 48.078,223.234 48.266,223.833 47.667 C 224.017 47.483,224.354 47.333,224.583 47.333 C 224.813 47.333,225.000 47.258,225.000 47.167 C 225.000 47.075,225.112 47.000,225.250 47.000 C 225.387 47.000,225.500 46.925,225.500 46.833 C 225.500 46.742,225.650 46.667,225.833 46.667 C 226.019 46.667,226.167 46.556,226.167 46.417 C 226.167 46.036,226.262 46.095,227.243 47.083 L 228.152 48.000 229.854 48.000 C 230.790 48.000,231.509 47.953,231.452 47.896 C 231.394 47.839,231.497 47.670,231.681 47.521 C 232.013 47.250,232.013 47.250,231.674 46.960 C 231.486 46.800,231.329 46.725,231.323 46.793 C 231.317 46.861,231.244 46.748,231.161 46.542 C 231.079 46.335,230.915 46.166,230.797 46.166 C 230.680 46.166,230.436 45.946,230.257 45.678 C 230.077 45.410,229.871 45.227,229.798 45.272 C 229.726 45.316,229.667 45.270,229.667 45.169 C 229.667 44.958,228.858 44.167,228.642 44.167 C 228.564 44.167,228.500 44.017,228.500 43.833 C 228.500 43.650,228.563 43.500,228.640 43.500 C 228.793 43.500,229.242 42.659,229.196 42.458 C 229.180 42.390,229.279 42.333,229.417 42.333 C 229.556 42.333,229.667 42.185,229.667 42.000 C 229.667 41.817,229.730 41.667,229.807 41.667 C 229.884 41.667,230.089 41.404,230.262 41.083 C 230.434 40.762,230.634 40.500,230.705 40.500 C 230.775 40.500,230.833 40.313,230.833 40.083 L 230.833 39.667 228.988 39.667 C 227.198 39.667,226.680 39.803,226.661 40.280 C 226.638 40.841,225.333 41.507,225.333 40.957 C 225.333 40.842,225.061 40.498,224.728 40.192 L 224.122 39.636 224.729 39.110 C 225.063 38.820,225.335 38.490,225.334 38.375 C 225.334 38.260,225.446 38.167,225.583 38.167 C 225.721 38.167,225.833 38.050,225.833 37.907 C 225.833 37.764,225.908 37.693,226.000 37.750 C 226.095 37.808,226.167 37.668,226.167 37.427 C 226.167 37.192,226.242 37.000,226.333 37.000 C 226.575 37.000,226.541 34.488,226.292 33.951 C 226.177 33.704,226.027 33.502,225.958 33.501 C 225.890 33.501,225.833 33.420,225.833 33.321 C 225.833 33.109,225.416 32.667,225.215 32.667 C 225.137 32.667,224.965 32.517,224.833 32.333 C 224.701 32.150,224.460 32.000,224.297 32.000 C 224.133 32.000,224.000 31.930,224.000 31.845 C 224.000 31.470,221.736 31.269,220.661 31.548 M392.458 31.570 C 392.115 31.656,391.833 31.787,391.833 31.863 C 391.833 31.938,391.646 32.000,391.417 32.000 C 391.188 32.000,391.000 32.075,391.000 32.167 C 391.000 32.258,390.906 32.334,390.792 32.334 C 390.384 32.336,389.000 33.816,389.000 34.251 C 389.000 34.479,388.925 34.667,388.833 34.667 C 388.534 34.667,388.629 37.708,388.949 38.347 C 389.212 38.876,389.883 39.667,390.067 39.667 C 390.112 39.667,390.352 39.854,390.599 40.083 C 390.846 40.313,391.225 40.500,391.441 40.500 C 391.657 40.500,391.834 40.594,391.836 40.708 C 391.838 40.847,391.892 40.833,392.000 40.667 C 392.108 40.500,392.162 40.486,392.164 40.625 C 392.166 40.746,392.381 40.833,392.677 40.833 C 392.974 40.833,393.143 40.903,393.083 41.000 C 393.027 41.092,393.130 41.167,393.314 41.167 C 393.497 41.167,393.692 41.239,393.747 41.329 C 393.802 41.418,394.219 41.540,394.674 41.600 C 395.128 41.660,395.500 41.775,395.500 41.855 C 395.500 41.935,395.578 42.000,395.674 42.000 C 395.949 42.000,396.667 42.790,396.667 43.092 C 396.667 43.458,395.713 44.333,395.316 44.333 C 395.142 44.333,395.000 44.411,395.000 44.507 C 395.000 44.605,394.709 44.663,394.333 44.641 C 393.967 44.619,393.667 44.550,393.667 44.486 C 393.667 44.422,393.404 44.321,393.083 44.261 C 392.653 44.180,392.500 44.066,392.500 43.826 C 392.500 43.647,392.425 43.500,392.333 43.500 C 392.242 43.500,392.167 43.237,392.167 42.917 L 392.167 42.333 390.250 42.333 L 388.333 42.333 388.333 43.133 C 388.333 43.915,388.625 44.829,388.875 44.832 C 388.944 44.833,389.000 44.980,389.000 45.159 C 389.000 45.338,389.188 45.672,389.417 45.902 C 389.646 46.131,389.833 46.397,389.833 46.492 C 389.833 46.588,389.929 46.667,390.047 46.667 C 390.164 46.667,390.368 46.817,390.500 47.000 C 390.632 47.183,390.876 47.333,391.043 47.333 C 391.209 47.333,391.511 47.442,391.714 47.574 C 392.715 48.227,397.309 48.135,396.898 47.470 C 396.852 47.395,397.043 47.333,397.323 47.333 C 397.604 47.333,397.833 47.258,397.833 47.167 C 397.833 47.075,397.911 47.000,398.007 47.000 C 398.196 47.000,398.479 46.787,399.050 46.216 C 399.925 45.341,399.917 45.372,399.917 43.004 L 399.917 40.750 399.250 40.083 C 398.471 39.304,397.783 38.833,397.423 38.833 C 397.282 38.833,397.167 38.758,397.167 38.667 C 397.167 38.575,396.885 38.494,396.542 38.487 C 396.198 38.480,396.026 38.431,396.159 38.378 C 396.450 38.264,394.795 37.694,394.125 37.678 C 393.873 37.672,393.667 37.592,393.667 37.500 C 393.667 37.408,393.479 37.333,393.250 37.333 C 393.021 37.333,392.833 37.272,392.833 37.198 C 392.833 37.124,392.682 36.900,392.497 36.701 C 392.142 36.321,392.221 35.987,392.817 35.344 C 393.475 34.634,396.000 35.025,396.000 35.836 C 396.000 35.937,396.075 35.973,396.167 35.917 C 396.266 35.855,396.333 36.054,396.333 36.407 L 396.333 37.000 398.083 37.000 L 399.833 37.000 399.833 36.071 C 399.833 35.468,399.746 35.055,399.583 34.893 C 399.446 34.755,399.333 34.461,399.333 34.238 C 399.333 34.015,399.271 33.833,399.195 33.833 C 399.119 33.833,398.957 33.648,398.836 33.422 C 398.715 33.196,398.553 33.051,398.475 33.099 C 398.397 33.147,398.333 33.069,398.333 32.927 C 398.333 32.784,398.237 32.667,398.120 32.667 C 398.003 32.667,397.799 32.517,397.667 32.333 C 397.535 32.150,397.255 32.000,397.047 32.000 C 396.838 32.000,396.667 31.933,396.667 31.852 C 396.667 31.484,393.626 31.280,392.458 31.570 M239.500 39.778 L 239.500 48.000 241.000 48.000 C 241.889 48.000,242.500 47.932,242.500 47.833 C 242.500 47.742,242.579 47.667,242.677 47.667 C 242.774 47.667,242.799 47.753,242.734 47.859 C 242.660 47.978,242.688 48.006,242.808 47.933 C 242.940 47.851,243.000 47.006,243.000 45.240 L 243.000 42.667 244.750 42.667 C 245.806 42.667,246.500 42.601,246.500 42.500 C 246.500 42.408,246.579 42.333,246.677 42.333 C 246.774 42.333,246.799 42.421,246.732 42.528 C 246.647 42.666,246.706 42.684,246.931 42.590 C 247.106 42.517,247.419 42.421,247.625 42.376 C 247.831 42.331,248.000 42.228,248.000 42.147 C 248.000 42.066,248.150 42.000,248.333 42.000 C 248.517 42.000,248.667 41.934,248.667 41.853 C 248.667 41.772,248.816 41.666,248.999 41.619 C 249.182 41.571,249.384 41.393,249.448 41.224 C 249.580 40.877,249.916 40.500,250.095 40.500 C 250.287 40.500,250.656 39.940,250.661 39.639 C 250.664 39.486,250.745 39.335,250.841 39.303 C 250.936 39.271,251.027 38.933,251.042 38.551 C 251.057 38.169,251.129 37.893,251.202 37.938 C 251.274 37.983,251.333 37.678,251.333 37.260 C 251.333 36.842,251.258 36.500,251.167 36.500 C 251.075 36.500,251.000 36.162,251.000 35.750 C 251.000 35.337,250.925 35.000,250.833 35.000 C 250.742 35.000,250.667 34.847,250.667 34.659 C 250.667 34.341,250.476 34.079,249.550 33.127 C 249.003 32.564,248.700 32.333,248.507 32.333 C 248.411 32.333,248.333 32.258,248.333 32.167 C 248.333 32.075,248.065 32.000,247.738 32.000 C 247.411 32.000,247.029 31.886,246.890 31.747 C 246.677 31.534,246.067 31.499,243.068 31.525 L 239.500 31.556 239.500 39.778 M263.875 31.619 C 263.760 31.661,263.667 31.913,263.667 32.181 C 263.667 32.448,263.592 32.667,263.500 32.667 C 263.408 32.667,263.333 32.854,263.333 33.083 C 263.333 33.313,263.254 33.500,263.157 33.500 C 263.060 33.500,263.020 33.564,263.068 33.642 C 263.116 33.720,263.008 34.073,262.828 34.427 C 262.648 34.781,262.500 35.242,262.500 35.452 C 262.500 35.662,262.425 35.833,262.333 35.833 C 262.242 35.833,262.167 35.983,262.167 36.167 C 262.167 36.350,262.092 36.500,262.000 36.500 C 261.908 36.500,261.833 36.757,261.833 37.071 C 261.833 37.386,261.721 37.755,261.583 37.893 C 261.446 38.030,261.333 38.298,261.333 38.488 C 261.333 38.678,261.258 38.833,261.167 38.833 C 261.075 38.833,261.000 39.015,261.000 39.236 C 261.000 39.458,260.927 39.664,260.839 39.694 C 260.750 39.725,260.659 39.994,260.637 40.292 C 260.614 40.590,260.537 40.833,260.465 40.833 C 260.392 40.833,260.333 40.969,260.333 41.135 C 260.333 41.301,260.223 41.582,260.089 41.760 C 259.954 41.938,259.840 42.308,259.836 42.583 C 259.830 42.968,259.791 43.026,259.667 42.833 C 259.540 42.637,259.500 42.681,259.482 43.042 C 259.454 43.580,259.447 43.608,259.194 44.219 C 259.087 44.477,259.000 44.758,259.000 44.844 C 259.000 44.930,258.925 45.000,258.833 45.000 C 258.742 45.000,258.667 45.188,258.667 45.417 C 258.667 45.646,258.573 45.834,258.458 45.836 C 258.319 45.838,258.333 45.892,258.500 46.000 C 258.667 46.108,258.681 46.162,258.542 46.164 C 258.427 46.166,258.333 46.302,258.333 46.467 C 258.333 46.632,258.252 46.848,258.153 46.947 C 258.053 47.047,257.997 47.306,258.028 47.522 C 258.104 48.062,261.255 48.239,261.450 47.714 C 261.510 47.551,261.697 47.295,261.863 47.147 C 262.030 46.999,262.167 46.718,262.167 46.522 C 262.167 46.327,262.242 46.167,262.333 46.167 C 262.425 46.167,262.500 45.936,262.500 45.655 C 262.500 44.730,262.701 44.667,265.655 44.667 C 268.222 44.667,268.333 44.680,268.333 45.000 C 268.333 45.183,268.408 45.333,268.500 45.333 C 268.592 45.333,268.667 45.554,268.667 45.823 C 268.667 46.093,268.742 46.360,268.833 46.417 C 268.925 46.473,269.000 46.671,269.000 46.855 C 269.000 47.260,269.375 47.667,269.748 47.667 C 269.897 47.667,269.973 47.742,269.917 47.833 C 269.715 48.160,272.515 48.038,272.787 47.708 C 273.015 47.432,273.022 47.432,272.932 47.717 C 272.877 47.893,272.906 47.975,273.002 47.915 C 273.217 47.783,273.215 47.050,273.000 46.917 C 272.908 46.860,272.833 46.668,272.833 46.490 C 272.833 46.312,272.758 46.167,272.667 46.167 C 272.575 46.167,272.500 46.011,272.500 45.821 C 272.500 45.632,272.387 45.364,272.250 45.226 C 272.112 45.089,272.000 44.719,272.000 44.405 C 272.000 44.090,271.925 43.833,271.833 43.833 C 271.742 43.833,271.667 43.641,271.667 43.407 C 271.667 43.165,271.595 43.025,271.500 43.083 C 271.403 43.143,271.333 42.981,271.333 42.697 C 271.333 42.428,271.221 42.114,271.083 42.000 C 270.946 41.886,270.833 41.688,270.833 41.560 C 270.833 41.172,270.427 40.000,270.293 40.000 C 270.223 40.000,270.167 39.813,270.167 39.583 C 270.167 39.354,270.092 39.167,270.000 39.167 C 269.908 39.167,269.833 38.942,269.833 38.667 C 269.833 38.392,269.759 38.167,269.669 38.167 C 269.578 38.167,269.456 37.865,269.397 37.496 C 269.338 37.128,269.224 36.786,269.145 36.736 C 269.065 36.687,269.000 36.464,269.000 36.240 C 269.000 36.016,268.925 35.833,268.833 35.833 C 268.742 35.833,268.667 35.652,268.667 35.431 C 268.667 35.209,268.588 35.001,268.491 34.969 C 268.327 34.915,268.091 34.197,267.884 33.125 C 267.835 32.873,267.729 32.667,267.648 32.667 C 267.566 32.667,267.500 32.517,267.500 32.333 C 267.500 32.150,267.425 32.000,267.333 32.000 C 267.242 32.000,267.167 31.904,267.167 31.788 C 267.167 31.579,264.382 31.436,263.875 31.619 M281.628 39.608 C 281.663 45.852,281.719 47.667,281.878 47.669 C 282.011 47.671,281.996 47.730,281.833 47.837 C 281.661 47.951,282.104 47.989,283.250 47.960 L 284.917 47.917 284.962 44.958 L 285.008 42.000 285.766 42.000 C 286.496 42.000,287.000 42.267,287.000 42.655 C 287.000 42.753,287.058 42.833,287.129 42.833 C 287.200 42.833,287.407 43.170,287.588 43.582 C 287.769 43.993,287.973 44.331,288.042 44.332 C 288.110 44.333,288.167 44.483,288.167 44.667 C 288.167 44.850,288.242 45.000,288.333 45.000 C 288.425 45.000,288.500 45.112,288.500 45.250 C 288.500 45.387,288.568 45.500,288.650 45.500 C 288.733 45.500,288.939 45.837,289.108 46.249 C 289.278 46.662,289.473 46.999,289.542 46.999 C 289.610 47.000,289.667 47.123,289.667 47.273 C 289.667 47.822,290.192 47.989,291.917 47.992 C 293.146 47.994,293.518 47.948,293.333 47.816 C 293.132 47.673,293.157 47.654,293.458 47.720 C 293.959 47.830,293.991 47.021,293.500 46.667 C 293.317 46.535,293.167 46.293,293.167 46.130 C 293.167 45.967,293.100 45.833,293.018 45.833 C 292.936 45.833,292.822 45.646,292.765 45.417 C 292.707 45.188,292.587 45.000,292.497 45.000 C 292.407 45.000,292.333 44.850,292.333 44.667 C 292.333 44.483,292.258 44.333,292.167 44.333 C 292.075 44.333,292.000 44.221,292.000 44.083 C 292.000 43.946,291.936 43.833,291.858 43.833 C 291.781 43.833,291.578 43.496,291.408 43.083 C 291.238 42.671,291.039 42.333,290.966 42.333 C 290.893 42.333,290.833 42.227,290.833 42.097 C 290.833 41.967,290.742 41.831,290.630 41.793 C 290.437 41.729,291.175 40.833,291.421 40.833 C 291.478 40.833,291.622 40.740,291.741 40.625 C 291.861 40.510,292.118 40.306,292.313 40.172 C 292.507 40.037,292.667 39.825,292.667 39.702 C 292.667 39.579,292.854 39.232,293.083 38.931 C 293.527 38.350,293.740 35.000,293.333 35.000 C 293.242 35.000,293.167 34.850,293.167 34.667 C 293.167 34.483,293.092 34.333,293.000 34.333 C 292.908 34.333,292.833 34.220,292.833 34.081 C 292.833 33.775,291.364 32.333,291.054 32.333 C 290.932 32.333,290.833 32.258,290.833 32.167 C 290.833 32.075,290.577 32.000,290.264 32.000 C 289.951 32.000,289.663 31.906,289.625 31.792 C 289.572 31.633,288.598 31.579,285.569 31.567 L 281.583 31.550 281.628 39.608 M301.500 33.279 L 301.500 35.000 303.833 35.000 L 306.167 35.000 306.167 41.399 C 306.167 47.080,306.196 47.809,306.430 47.899 C 306.887 48.074,309.530 48.016,309.417 47.833 C 309.360 47.742,309.393 47.667,309.490 47.667 C 309.611 47.667,309.667 45.681,309.667 41.338 L 309.667 35.009 312.042 34.963 L 314.417 34.917 314.465 33.432 C 314.531 31.420,315.121 31.585,307.825 31.571 L 301.500 31.558 301.500 33.279 M323.206 31.697 C 323.047 31.759,323.010 31.815,323.125 31.822 C 323.289 31.831,323.333 33.534,323.333 39.750 C 323.333 47.174,323.352 47.667,323.625 47.680 C 323.808 47.688,323.837 47.725,323.703 47.779 C 323.585 47.826,323.379 47.774,323.244 47.662 C 323.101 47.543,323.000 47.529,323.000 47.628 C 323.000 47.913,323.465 48.000,324.972 47.997 C 325.966 47.996,326.339 47.945,326.167 47.833 C 325.953 47.695,325.958 47.671,326.206 47.669 C 326.473 47.667,326.498 47.285,326.539 42.708 C 326.568 39.495,326.635 37.941,326.729 38.292 C 326.809 38.590,326.941 38.833,327.021 38.833 C 327.101 38.833,327.167 38.918,327.167 39.022 C 327.167 39.126,327.306 39.332,327.476 39.480 C 327.646 39.629,327.839 39.919,327.904 40.125 C 327.969 40.331,328.092 40.500,328.178 40.500 C 328.263 40.500,328.333 40.601,328.333 40.724 C 328.333 40.848,328.596 41.219,328.917 41.550 C 329.237 41.880,329.500 42.255,329.500 42.384 C 329.500 42.512,329.717 42.844,329.982 43.122 C 330.248 43.400,330.515 43.786,330.577 43.980 C 330.639 44.174,330.759 44.333,330.845 44.333 C 330.930 44.333,331.000 44.457,331.000 44.608 C 331.000 44.759,331.244 45.122,331.542 45.415 C 331.840 45.708,332.108 46.085,332.139 46.253 C 332.170 46.422,332.399 46.752,332.649 46.988 C 332.899 47.224,333.149 47.537,333.204 47.685 C 333.337 48.039,335.998 48.150,336.003 47.800 C 336.005 47.626,336.033 47.627,336.146 47.806 C 336.401 48.207,336.418 47.578,336.372 39.490 L 336.327 31.564 334.789 31.592 C 333.942 31.607,333.212 31.639,333.167 31.663 C 333.121 31.687,333.027 31.697,332.958 31.686 C 332.890 31.676,332.833 33.743,332.833 36.281 L 332.833 40.896 332.500 40.538 C 332.317 40.342,332.167 40.106,332.167 40.015 C 332.167 39.924,332.073 39.790,331.958 39.717 C 331.843 39.643,331.637 39.358,331.500 39.083 C 331.362 38.808,331.120 38.439,330.960 38.262 C 330.801 38.086,330.627 37.804,330.574 37.637 C 330.521 37.470,330.408 37.333,330.322 37.333 C 330.237 37.333,330.167 37.221,330.167 37.085 C 330.167 36.948,330.017 36.742,329.833 36.628 C 329.650 36.513,329.500 36.323,329.500 36.205 C 329.500 36.086,329.387 35.946,329.250 35.894 C 329.112 35.841,329.000 35.670,329.000 35.514 C 329.000 35.357,328.850 35.069,328.667 34.872 C 328.483 34.675,328.333 34.468,328.333 34.412 C 328.333 34.356,328.240 34.205,328.125 34.077 C 327.607 33.499,327.500 33.331,327.500 33.090 C 327.500 32.949,327.425 32.833,327.333 32.833 C 327.242 32.833,327.167 32.721,327.167 32.583 C 327.167 32.446,327.042 32.333,326.889 32.333 C 326.736 32.333,326.658 32.287,326.714 32.230 C 327.201 31.743,324.239 31.293,323.206 31.697 M346.664 31.645 C 346.566 34.939,346.717 47.595,346.855 47.680 C 346.979 47.757,346.965 47.822,346.811 47.883 C 346.686 47.933,349.208 47.974,352.417 47.975 C 355.816 47.976,358.111 47.917,357.917 47.833 C 357.632 47.711,357.626 47.688,357.875 47.678 C 358.130 47.668,358.167 47.480,358.167 46.167 L 358.167 44.667 354.167 44.667 L 350.167 44.667 350.167 43.083 L 350.167 41.500 353.486 41.500 C 357.690 41.500,357.333 41.679,357.333 39.566 L 357.333 37.833 353.750 37.833 L 350.167 37.833 350.167 36.420 L 350.167 35.006 354.125 34.961 L 358.083 34.917 358.132 33.432 C 358.162 32.517,358.111 31.877,357.999 31.765 C 357.802 31.569,346.669 31.451,346.664 31.645 M367.667 39.458 C 367.667 48.722,367.505 48.000,369.583 48.000 C 370.471 48.000,370.834 47.940,370.836 47.792 C 370.838 47.653,370.892 47.667,371.000 47.833 C 371.108 48.000,371.162 47.067,371.164 45.042 L 371.167 42.000 372.083 42.000 C 372.751 42.000,373.000 42.062,373.000 42.230 C 373.000 42.356,373.113 42.553,373.250 42.667 C 373.387 42.781,373.500 43.015,373.500 43.187 C 373.500 43.359,373.557 43.500,373.626 43.500 C 373.695 43.500,373.859 43.744,373.991 44.042 C 374.122 44.340,374.328 44.682,374.448 44.804 C 374.568 44.925,374.667 45.131,374.667 45.262 C 374.667 45.393,374.742 45.500,374.833 45.500 C 374.925 45.500,375.000 45.650,375.000 45.833 C 375.000 46.017,375.075 46.167,375.167 46.167 C 375.258 46.167,375.333 46.279,375.333 46.417 C 375.333 46.554,375.408 46.667,375.500 46.667 C 375.592 46.667,375.667 46.749,375.667 46.849 C 375.667 46.950,375.822 47.250,376.011 47.516 L 376.356 48.000 378.220 47.988 C 379.364 47.981,379.955 47.924,379.750 47.840 C 379.435 47.710,379.433 47.696,379.721 47.579 C 380.097 47.425,379.971 46.742,379.489 46.324 C 379.312 46.170,379.167 45.884,379.167 45.689 C 379.167 45.432,379.063 45.333,378.792 45.331 C 378.488 45.329,378.465 45.297,378.667 45.167 C 378.804 45.078,378.831 45.004,378.726 45.003 C 378.622 45.001,378.489 44.813,378.432 44.583 C 378.374 44.354,378.253 44.167,378.163 44.167 C 378.074 44.167,378.000 44.017,378.000 43.833 C 378.000 43.650,377.925 43.500,377.833 43.500 C 377.742 43.500,377.667 43.420,377.667 43.321 C 377.667 43.223,377.573 43.038,377.458 42.911 C 376.753 42.124,376.693 41.754,377.184 41.231 C 377.390 41.012,377.619 40.833,377.694 40.833 C 377.919 40.833,378.500 40.274,378.500 40.058 C 378.500 39.947,378.650 39.808,378.833 39.750 C 379.049 39.681,379.167 39.498,379.167 39.229 C 379.167 38.995,379.239 38.859,379.333 38.917 C 379.433 38.978,379.500 38.776,379.500 38.417 C 379.500 38.057,379.567 37.855,379.667 37.917 C 379.771 37.981,379.833 37.610,379.833 36.917 C 379.833 36.224,379.771 35.852,379.667 35.917 C 379.566 35.979,379.500 35.752,379.500 35.343 C 379.500 34.971,379.425 34.667,379.333 34.667 C 379.242 34.667,379.167 34.529,379.167 34.361 C 379.167 33.940,377.570 32.333,377.152 32.333 C 376.966 32.333,376.860 32.258,376.917 32.167 C 376.978 32.068,376.784 32.000,376.440 32.000 C 376.122 32.000,375.830 31.906,375.792 31.792 C 375.738 31.633,374.768 31.583,371.694 31.583 L 367.667 31.583 367.667 39.458 M281.410 39.750 C 281.410 44.150,281.432 45.926,281.458 43.697 C 281.484 41.468,281.484 37.868,281.458 35.697 C 281.432 33.526,281.410 35.350,281.410 39.750 M222.667 34.750 C 222.754 34.979,222.902 35.167,222.996 35.167 C 223.090 35.167,223.167 35.467,223.167 35.833 C 223.167 36.200,223.092 36.500,223.000 36.500 C 222.908 36.500,222.833 36.612,222.833 36.750 C 222.833 36.887,222.721 37.000,222.583 37.000 C 222.446 37.000,222.333 37.075,222.333 37.167 C 222.333 37.258,222.141 37.333,221.907 37.333 C 221.672 37.333,221.521 37.267,221.572 37.186 C 221.622 37.104,221.551 36.945,221.415 36.832 C 221.278 36.719,221.167 36.523,221.167 36.396 C 221.167 36.270,221.092 36.167,221.000 36.167 C 220.908 36.167,220.834 35.923,220.836 35.625 C 220.838 35.265,220.886 35.158,220.979 35.306 C 221.086 35.474,221.143 35.440,221.215 35.168 C 221.266 34.971,221.463 34.768,221.652 34.719 C 221.842 34.669,221.955 34.562,221.905 34.481 C 221.855 34.400,221.970 34.333,222.161 34.333 C 222.378 34.333,222.568 34.490,222.667 34.750 M246.927 35.749 C 248.582 37.405,247.611 38.879,244.801 38.975 L 243.000 39.037 243.000 36.999 L 243.000 34.961 244.635 35.027 L 246.270 35.093 246.927 35.749 M289.227 35.546 C 289.469 35.787,289.667 36.063,289.667 36.159 C 289.667 36.255,289.742 36.333,289.833 36.333 C 289.925 36.333,290.000 36.558,290.000 36.833 C 290.000 37.108,289.925 37.333,289.833 37.333 C 289.742 37.333,289.667 37.412,289.667 37.508 C 289.667 37.734,288.900 38.500,288.674 38.500 C 288.578 38.500,288.500 38.575,288.500 38.667 C 288.500 38.767,287.806 38.833,286.750 38.833 L 285.000 38.833 285.000 37.028 C 285.000 34.825,284.873 34.949,287.019 35.035 C 288.661 35.101,288.820 35.138,289.227 35.546 M374.998 35.289 C 375.977 35.713,376.662 37.833,375.820 37.833 C 375.730 37.833,375.435 38.058,375.167 38.333 C 374.685 38.826,374.653 38.833,372.922 38.833 L 371.167 38.833 371.167 37.014 C 371.167 35.714,371.226 35.170,371.375 35.110 C 371.917 34.892,374.359 35.012,374.998 35.289 M265.698 37.250 C 265.657 37.607,265.702 37.833,265.815 37.833 C 265.917 37.833,266.000 38.054,266.000 38.323 C 266.000 38.593,266.075 38.860,266.167 38.917 C 266.258 38.973,266.333 39.165,266.333 39.343 C 266.333 39.521,266.407 39.667,266.498 39.667 C 266.589 39.667,266.711 39.968,266.770 40.337 C 266.829 40.706,266.942 41.048,267.022 41.097 C 267.463 41.369,266.996 41.500,265.583 41.500 C 264.111 41.500,264.000 41.477,264.000 41.167 C 264.000 40.983,264.067 40.833,264.148 40.833 C 264.230 40.833,264.345 40.571,264.406 40.250 C 264.466 39.929,264.587 39.667,264.674 39.667 C 264.762 39.667,264.833 39.404,264.833 39.083 C 264.833 38.762,264.908 38.500,265.000 38.500 C 265.092 38.500,265.167 38.317,265.167 38.093 C 265.167 37.869,265.242 37.640,265.333 37.583 C 265.425 37.527,265.500 37.297,265.500 37.073 C 265.500 36.850,265.560 36.667,265.633 36.667 C 265.706 36.667,265.736 36.929,265.698 37.250 M355.384 41.291 C 354.449 41.321,352.874 41.321,351.884 41.291 C 350.894 41.262,351.658 41.237,353.583 41.237 C 355.508 41.237,356.319 41.261,355.384 41.291 M223.635 44.207 C 223.214 44.368,222.821 44.766,222.952 44.897 C 223.009 44.954,222.693 45.000,222.250 45.000 C 221.807 45.000,221.486 44.958,221.537 44.907 C 221.589 44.856,221.376 44.567,221.065 44.265 C 220.545 43.760,220.213 42.636,220.667 42.917 C 220.758 42.973,220.834 42.921,220.836 42.802 C 220.837 42.682,221.001 42.387,221.202 42.147 L 221.565 41.711 222.761 42.897 C 223.808 43.936,223.917 44.099,223.635 44.207 "
        ></path>
    </g>
</svg>
